<svg version="1.1" id="Layer_1" xmlns="http://www.w3.org/2000/svg" xmlns:xlink="http://www.w3.org/1999/xlink" x="0px" y="0px"
	 width="100%" viewBox="0 0 2100 600" enable-background="new 0 0 2100 600" xml:space="preserve">
<path fill="#FFFFFF" opacity="1.000000" stroke="none" 
	d="
M1188.000000,0.999994 
	C1295.021973,1.000000 1402.044067,1.000000 1509.532959,1.468657 
	C1510.000000,58.182125 1510.000000,114.426933 1510.000000,170.788605 
	C1550.852661,170.788605 1591.241089,170.788605 1632.019043,170.788605 
	C1632.019043,152.181244 1632.019043,133.780212 1632.019043,115.000000 
	C1788.605713,115.000000 1944.802856,115.000000 2101.000000,115.000000 
	C2101.000000,151.355347 2101.000000,187.710693 2100.531250,224.533020 
	C1903.474609,225.000000 1706.886719,225.000000 1510.000000,225.000000 
	C1510.000000,350.733643 1510.000000,475.866821 1510.000000,601.000000 
	C1307.644653,601.000000 1105.289307,601.000000 902.466980,600.531372 
	C902.000000,549.802002 902.000000,499.541351 902.000000,449.000000 
	C904.138489,449.000000 905.777649,449.000000 907.416870,449.000000 
	C935.244141,449.000000 963.071899,449.100250 990.898682,448.979584 
	C1052.637939,448.711853 1114.380615,448.619720 1176.112793,447.783386 
	C1190.204590,447.592438 1204.353516,445.237427 1218.311890,442.898438 
	C1248.354004,437.864166 1276.646240,427.811798 1302.879028,412.059235 
	C1327.888184,397.041443 1348.689941,377.705811 1365.089478,353.566895 
	C1376.369263,336.963837 1384.645264,319.009338 1390.643555,299.878357 
	C1396.446167,281.371704 1399.871826,262.373474 1400.771729,243.148483 
	C1401.763794,221.954498 1401.036011,200.763687 1397.233887,179.646118 
	C1393.556274,159.219482 1388.002441,139.434769 1378.721436,121.069244 
	C1372.005493,107.779663 1363.111084,95.528603 1354.586060,83.231796 
	C1344.569458,68.783440 1331.340698,57.315918 1317.217529,47.134907 
	C1295.693115,31.618612 1272.091797,19.933416 1246.380981,13.115196 
	C1232.542969,9.445507 1218.389893,6.954525 1204.360229,4.021272 
	C1198.933472,2.886664 1193.454956,1.999747 1188.000000,0.999994 
z"/>
<path fill="#000000" opacity="1.000000" stroke="none" 
	d="
M1187.531372,0.999994 
	C1193.454956,1.999747 1198.933472,2.886664 1204.360229,4.021272 
	C1218.389893,6.954525 1232.542969,9.445507 1246.380981,13.115196 
	C1272.091797,19.933416 1295.693115,31.618612 1317.217529,47.134907 
	C1331.340698,57.315918 1344.569458,68.783440 1354.586060,83.231796 
	C1363.111084,95.528603 1372.005493,107.779663 1378.721436,121.069244 
	C1388.002441,139.434769 1393.556274,159.219482 1397.233887,179.646118 
	C1401.036011,200.763687 1401.763794,221.954498 1400.771729,243.148483 
	C1399.871826,262.373474 1396.446167,281.371704 1390.643555,299.878357 
	C1384.645264,319.009338 1376.369263,336.963837 1365.089478,353.566895 
	C1348.689941,377.705811 1327.888184,397.041443 1302.879028,412.059235 
	C1276.646240,427.811798 1248.354004,437.864166 1218.311890,442.898438 
	C1204.353516,445.237427 1190.204590,447.592438 1176.112793,447.783386 
	C1114.380615,448.619720 1052.637939,448.711853 990.898682,448.979584 
	C963.071899,449.100250 935.244141,449.000000 907.416870,449.000000 
	C905.777649,449.000000 904.138489,449.000000 902.000000,449.000000 
	C902.000000,499.541351 902.000000,549.802002 902.000000,600.531372 
	C861.979126,601.000000 821.958191,601.000000 781.468628,600.533936 
	C781.000000,400.378571 781.000000,200.689285 781.000000,1.000000 
	C916.354248,1.000000 1051.708496,1.000000 1187.531372,0.999994 
M1139.499756,115.000000 
	C1060.415894,115.000000 981.332153,115.000000 902.260742,115.000000 
	C902.260742,187.939026 902.260742,260.333801 902.260742,333.000000 
	C904.322815,333.000000 906.127136,333.000000 907.931458,333.000000 
	C988.914978,333.000000 1069.898560,333.070374 1150.881836,332.911346 
	C1161.049805,332.891388 1171.330322,332.398163 1181.356689,330.831238 
	C1199.004883,328.073181 1216.612915,324.266846 1231.853760,314.376251 
	C1240.006836,309.085236 1248.188477,303.053558 1254.393433,295.699310 
	C1270.071411,277.117462 1275.307495,254.383743 1275.786743,230.691208 
	C1276.020264,219.141800 1274.680298,207.436890 1272.835327,195.998718 
	C1270.207275,179.706787 1263.398926,164.931015 1252.694946,152.287430 
	C1237.714966,134.593079 1217.579224,125.388626 1195.665405,120.179169 
	C1177.619873,115.889313 1159.088379,114.610573 1139.499756,115.000000 
z"/>
<path fill="#000000" opacity="1.000000" stroke="none" 
	d="
M510.000000,1.000000 
	C550.354248,1.000000 590.708435,1.000000 631.531372,1.466042 
	C632.000000,201.621384 632.000000,401.310699 632.000000,601.000000 
	C591.645752,601.000000 551.291565,601.000000 510.468658,600.531372 
	C510.000000,518.825073 510.000000,437.587524 510.000000,356.330109 
	C380.082214,356.330109 250.607498,356.330109 121.000000,356.330109 
	C121.000000,438.106750 121.000000,519.553406 121.000000,601.000000 
	C81.020844,601.000000 41.041679,601.000000 1.062414,601.000000 
	C1.062308,401.000000 1.062308,200.999985 1.062308,1.000000 
	C40.770638,1.000000 80.416664,1.000000 120.531342,1.468657 
	C121.000000,81.175232 121.000000,160.413147 121.000000,239.670395 
	C250.918091,239.670395 380.392151,239.670395 510.000000,239.670395 
	C510.000000,159.893906 510.000000,80.446953 510.000000,1.000000 
z"/>
<path fill="#01A982" opacity="1.000000" stroke="none" 
	d="
M1510.468628,601.000000 
	C1510.000000,475.866821 1510.000000,350.733643 1510.000000,225.000000 
	C1706.886719,225.000000 1903.474609,225.000000 2100.531250,225.000000 
	C2101.000000,263.020905 2101.000000,301.041779 2100.531250,339.531342 
	C1944.150757,340.000000 1788.239014,340.000000 1632.318604,340.000000 
	C1632.318604,389.294739 1632.318604,438.016479 1632.318604,487.000000 
	C1788.757935,487.000000 1944.879028,487.000000 2101.000000,487.000000 
	C2101.000000,524.976440 2101.000000,562.952820 2101.000000,601.000000 
	C1904.312378,601.000000 1707.624878,601.000000 1510.468628,601.000000 
z"/>
<path fill="#FFFFFF" opacity="1.000000" stroke="none" 
	d="
M121.468658,601.000000 
	C121.000000,519.553406 121.000000,438.106750 121.000000,356.330109 
	C250.607498,356.330109 380.082214,356.330109 510.000000,356.330109 
	C510.000000,437.587524 510.000000,518.825073 510.000000,600.531372 
	C380.645782,601.000000 251.291550,601.000000 121.468658,601.000000 
z"/>
<path fill="#FFFFFF" opacity="1.000000" stroke="none" 
	d="
M509.531342,1.000000 
	C510.000000,80.446953 510.000000,159.893906 510.000000,239.670395 
	C380.392151,239.670395 250.918091,239.670395 121.000000,239.670395 
	C121.000000,160.413147 121.000000,81.175232 121.000000,1.468657 
	C250.354233,1.000000 379.708466,1.000000 509.531342,1.000000 
z"/>
<path fill="#FFFFFF" opacity="1.000000" stroke="none" 
	d="
M632.466064,601.000000 
	C632.000000,401.310699 632.000000,201.621384 632.000000,1.466042 
	C681.355957,1.000000 730.711914,1.000000 780.533936,1.000000 
	C781.000000,200.689285 781.000000,400.378571 781.000000,600.533936 
	C731.644043,601.000000 682.288086,601.000000 632.466064,601.000000 
z"/>
<path fill="#000000" opacity="1.000000" stroke="none" 
	d="
M2101.000000,114.531342 
	C1944.802856,115.000000 1788.605713,115.000000 1632.019043,115.000000 
	C1632.019043,133.780212 1632.019043,152.181244 1632.019043,170.788605 
	C1591.241089,170.788605 1550.852661,170.788605 1510.000000,170.788605 
	C1510.000000,114.426933 1510.000000,58.182125 1510.000000,1.468657 
	C1706.877686,1.000000 1903.755371,1.000000 2101.000000,1.000000 
	C2101.000000,38.686768 2101.000000,76.374725 2101.000000,114.531342 
z"/>
<path fill="#FFFFFF" opacity="1.000000" stroke="none" 
	d="
M2101.000000,486.531342 
	C1944.879028,487.000000 1788.757935,487.000000 1632.318604,487.000000 
	C1632.318604,438.016479 1632.318604,389.294739 1632.318604,340.000000 
	C1788.239014,340.000000 1944.150757,340.000000 2100.531250,340.000000 
	C2101.000000,388.687561 2101.000000,437.375122 2101.000000,486.531342 
z"/>
<path fill="#FFFFFF" opacity="1.000000" stroke="none" 
	d="
M1139.999634,115.000000 
	C1159.088379,114.610573 1177.619873,115.889313 1195.665405,120.179169 
	C1217.579224,125.388626 1237.714966,134.593079 1252.694946,152.287430 
	C1263.398926,164.931015 1270.207275,179.706787 1272.835327,195.998718 
	C1274.680298,207.436890 1276.020264,219.141800 1275.786743,230.691208 
	C1275.307495,254.383743 1270.071411,277.117462 1254.393433,295.699310 
	C1248.188477,303.053558 1240.006836,309.085236 1231.853760,314.376251 
	C1216.612915,324.266846 1199.004883,328.073181 1181.356689,330.831238 
	C1171.330322,332.398163 1161.049805,332.891388 1150.881836,332.911346 
	C1069.898560,333.070374 988.914978,333.000000 907.931458,333.000000 
	C906.127136,333.000000 904.322815,333.000000 902.260742,333.000000 
	C902.260742,260.333801 902.260742,187.939026 902.260742,115.000000 
	C981.332153,115.000000 1060.415894,115.000000 1139.999634,115.000000 
z"/>
</svg>