<?xml version="1.0" encoding="UTF-8"?>
<svg version="1.1" xmlns="http://www.w3.org/2000/svg" width="2100" height="600">
<path d="M0 0 C65.62875 -0.061875 131.2575 -0.12375 198.875 -0.1875 C219.57331543 -0.21481201 240.27163086 -0.24212402 261.59716797 -0.27026367 C286.93383789 -0.28381348 286.93383789 -0.28381348 298.80691528 -0.28633118 C307.07329899 -0.28911841 315.33962123 -0.30007878 323.60598755 -0.31672668 C333.15858007 -0.33593623 342.71111406 -0.34448152 352.263726 -0.34033485 C357.14152201 -0.33854158 362.0191875 -0.3412159 366.89695907 -0.35764539 C387.15629556 -0.42260371 406.92242408 -0.08351004 427 3 C427.72967727 3.10959632 428.45935455 3.21919263 429.21114326 3.33211005 C432.86886348 3.8873653 436.49778784 4.52153804 440.125 5.25 C441.18299805 5.45979492 442.24099609 5.66958984 443.33105469 5.88574219 C499.24534761 17.40092941 551.75866922 46.97076986 584 95 C609.32978446 133.69266197 620.21853972 178.19138526 620.25 224.125 C620.25101212 225.45541824 620.25101212 225.45541824 620.25204468 226.81271362 C620.23448724 241.38653504 619.56428293 255.62250342 617 270 C616.82839355 270.96599121 616.65678711 271.93198242 616.47998047 272.92724609 C608.89525384 314.00948746 590.78110065 349.83033748 562 380 C560.80117187 381.27810547 560.80117187 381.27810547 559.578125 382.58203125 C532.45283771 410.72673293 495.25201049 428.0181619 458 438 C457.12230957 438.23557617 456.24461914 438.47115234 455.34033203 438.71386719 C425.53454537 446.50862803 395.16609469 448.15924254 364.51196289 448.11352539 C361.84968464 448.11324292 359.18740914 448.11335853 356.52513123 448.1139679 C350.82046599 448.11448914 345.11581231 448.11138439 339.41114998 448.10573006 C331.16343504 448.09756049 322.91572561 448.09499428 314.66800707 448.09374207 C301.28265585 448.09156007 287.89731078 448.08492322 274.51196289 448.07543945 C261.51879913 448.0662432 248.52563706 448.0591847 235.5324707 448.05493164 C234.72176485 448.05466364 233.91105899 448.05439565 233.07578629 448.05411953 C226.73437932 448.05203978 220.39297231 448.05008297 214.05156529 448.04816496 C183.03437123 448.03875218 152.01719254 448.01862894 121 448 C121 498.16 121 548.32 121 600 C81.07 600 41.14 600 0 600 C0 402 0 204 0 0 Z M121 114 C121 185.94 121 257.88 121 332 C166.69823852 332.05831881 166.69823852 332.05831881 212.39648438 332.09765625 C218.574463 332.1015713 224.75244152 332.10561207 230.93041992 332.10986328 C231.70460429 332.11039078 232.47878867 332.11091828 233.27643317 332.11146176 C245.73403114 332.12013273 258.19161043 332.13588493 270.64919736 332.15430559 C283.45798816 332.17308596 296.26676926 332.18413382 309.07557327 332.18817699 C316.96326148 332.19090527 324.85089688 332.19948507 332.73856882 332.21583293 C338.81251076 332.22777146 344.8864084 332.22889102 350.96036339 332.22621536 C353.43327151 332.22676069 355.90618184 332.2306726 358.37907791 332.23841095 C376.88406173 332.29342428 395.50432645 331.98411625 413.625 327.8125 C414.57246094 327.59819336 415.51992187 327.38388672 416.49609375 327.16308594 C441.56144708 321.2322945 464.24132399 309.87611684 479 288 C496.12856157 260.14607744 499.1573022 224.72243016 491.9296875 193.140625 C487.3228037 174.22521447 479.7856055 159.02328835 466 145 C464.97132813 143.95199219 464.97132813 143.95199219 463.921875 142.8828125 C457.69822977 136.95882426 450.54945879 132.95854974 443 129 C442.14019531 128.53722656 441.28039063 128.07445312 440.39453125 127.59765625 C413.70915003 114.31860327 382.92457058 113.84117594 353.84057617 113.88647461 C351.29681906 113.88675701 348.75306187 113.88659771 346.20930481 113.8860321 C340.75451741 113.88580526 335.2997454 113.88861963 329.84496117 113.89426994 C321.95848328 113.90243375 314.07201116 113.90500514 306.18552951 113.90625793 C293.38694802 113.90844082 280.58837294 113.91508012 267.78979492 113.92456055 C255.36499055 113.93375447 242.94018794 113.94081412 230.51538086 113.94506836 C229.74034905 113.94533636 228.96531723 113.94560435 228.1667996 113.94588047 C222.10458647 113.94796017 216.0423733 113.949917 209.98016012 113.95183504 C180.32010086 113.96125064 150.66005767 113.98137321 121 114 Z " fill="#FFFFFF" transform="translate(780,0)"/>
<path d="M0 0 C39.6 0 79.2 0 120 0 C120 78.87 120 157.74 120 239 C248.37 239 376.74 239 509 239 C509 160.13 509 81.26 509 0 C549.26 0 589.52 0 631 0 C631 198 631 396 631 600 C590.74 600 550.48 600 509 600 C509 519.15 509 438.3 509 355 C380.63 355 252.26 355 120 355 C120 435.85 120 516.7 120 600 C80.4 600 40.8 600 0 600 C0 402 0 204 0 0 Z " fill="#FFFFFF" transform="translate(0,0)"/>
<path d="M0 0 C195.03 0 390.06 0 591 0 C591 37.95 591 75.9 591 115 C436.23 115 281.46 115 122 115 C122 163.51 122 212.02 122 262 C276.77 262 431.54 262 591 262 C591 299.62 591 337.24 591 376 C395.97 376 200.94 376 0 376 C0 251.92 0 127.84 0 0 Z " fill="#01A982" transform="translate(1509,224)"/>
<path d="M0 0 C195.03 0 390.06 0 591 0 C591 37.62 591 75.24 591 114 C436.23 114 281.46 114 122 114 C122 132.48 122 150.96 122 170 C81.74 170 41.48 170 0 170 C0 113.9 0 57.8 0 0 Z " fill="#FFFFFF" transform="translate(1509,0)"/>
</svg>
