<svg version="1.1" id="Layer_1" xmlns="http://www.w3.org/2000/svg" xmlns:xlink="http://www.w3.org/1999/xlink" x="0px" y="0px"
	 width="100%" viewBox="0 0 500 500" enable-background="new 0 0 500 500" xml:space="preserve">
<path fill="#FFFFFF" opacity="1.000000" stroke="none" 
	d="
M245.000000,501.000000 
	C163.333359,501.000000 82.166702,501.000000 1.000044,501.000000 
	C1.000029,334.333405 1.000029,167.666779 1.000015,1.000133 
	C167.666565,1.000089 334.333130,1.000089 500.999756,1.000044 
	C500.999847,167.666519 500.999847,334.333038 500.999939,500.999786 
	C415.833344,501.000000 330.666656,501.000000 245.000000,501.000000 
M389.500000,331.081329 
	C423.634674,331.081329 457.769348,331.081329 492.225525,331.081329 
	C492.225525,277.519104 492.225525,224.357056 492.225525,171.226791 
	C331.265350,171.226791 170.757278,171.226791 10.318440,171.226791 
	C10.318440,224.680359 10.318440,277.730591 10.318440,331.082550 
	C136.627777,331.082550 262.563873,331.082550 389.500000,331.081329 
z"/>
<path fill="#E0251B" opacity="1.000000" stroke="none" 
	d="
M389.000000,331.081940 
	C262.563873,331.082550 136.627777,331.082550 10.318440,331.082550 
	C10.318440,277.730591 10.318440,224.680359 10.318440,171.226791 
	C170.757278,171.226791 331.265350,171.226791 492.225525,171.226791 
	C492.225525,224.357056 492.225525,277.519104 492.225525,331.081329 
	C457.769348,331.081329 423.634674,331.081329 389.000000,331.081940 
M454.714935,280.926880 
	C454.714935,280.926880 454.975616,280.807892 455.847137,280.889221 
	C460.806396,281.470001 456.313263,286.558929 459.560974,288.235382 
	C461.843414,284.853149 464.287201,284.698883 467.178650,288.368378 
	C467.178650,285.238708 467.178650,282.109039 467.178650,277.516479 
	C463.052612,283.032013 459.490082,279.190521 455.118530,278.916229 
	C453.161194,278.916229 451.203857,278.916229 450.232849,278.916229 
	C451.166138,282.556976 451.894287,285.397400 452.622437,288.237823 
	C453.057098,288.199310 453.491760,288.160797 453.926422,288.122284 
	C453.926422,285.935516 453.926422,283.748779 454.183167,281.447571 
	C454.351440,281.333435 454.434357,281.174652 454.714935,280.926880 
M246.177216,286.331329 
	C246.457565,286.016266 246.982147,285.701935 246.983032,285.386108 
	C247.016586,273.494019 247.035660,261.601501 246.926666,249.710205 
	C246.918365,248.804031 245.956955,247.906570 245.156418,246.244965 
	C243.978821,238.700638 241.303619,231.793625 233.982254,228.427521 
	C221.945541,222.893509 210.527451,224.394058 200.282089,233.783829 
	C200.089783,230.918304 199.949600,228.829636 199.803146,226.647339 
	C194.058212,226.647339 188.805389,226.647339 183.413757,226.647339 
	C183.413757,247.276932 183.413757,267.621582 183.413757,287.902161 
	C189.079926,287.902161 194.333649,287.902161 200.079926,287.902161 
	C200.079926,285.790039 200.080597,283.999146 200.079803,282.208221 
	C200.075607,272.719757 199.982178,263.230255 200.092682,253.743149 
	C200.194504,245.001038 205.734070,239.376083 214.431534,240.125671 
	C224.822540,241.021210 228.118576,244.646194 228.136734,253.539154 
	C228.151352,260.697083 228.131592,267.855072 228.128708,275.013031 
	C228.126984,279.281219 228.128387,283.549408 228.128387,288.230164 
	C233.448120,288.230164 238.092117,288.349701 242.720642,288.135071 
	C243.713760,288.089020 244.650803,286.833923 246.177216,286.331329 
M135.620239,269.838989 
	C147.926651,264.775391 160.159912,259.521301 172.579193,254.751541 
	C176.921051,253.084015 177.575287,250.959671 176.119171,246.897873 
	C171.440720,233.847595 162.578506,226.751633 148.566025,225.279938 
	C124.644661,222.767593 106.387665,245.098740 114.227608,267.802124 
	C120.841255,286.954315 145.480453,295.511688 164.738983,285.199127 
	C168.590546,283.136719 172.082870,280.403381 176.483093,277.487549 
	C172.948288,274.988800 170.574417,272.875824 167.823853,271.536438 
	C166.279160,270.784210 163.665253,270.565643 162.298798,271.384491 
	C154.549759,276.028046 146.428940,275.879517 138.164490,273.731659 
	C136.870605,273.395416 136.015228,271.371979 135.620239,269.838989 
M292.779846,288.658020 
	C303.587708,286.230499 311.387787,279.726440 316.168671,270.030182 
	C325.003235,252.112656 313.549011,226.851028 288.108673,225.298721 
	C259.931915,223.579437 246.021713,249.537613 255.119339,270.200104 
	C260.737183,282.959412 275.022339,291.660095 292.779846,288.658020 
M383.605804,262.751770 
	C384.103882,269.068726 387.348663,273.989227 391.500092,278.491486 
	C409.912445,298.460144 441.776520,288.877075 448.193329,266.569092 
	C451.873627,253.774643 447.565063,239.342682 436.770996,231.362808 
	C426.527863,223.790222 407.829559,223.320862 398.041199,230.177139 
	C386.951233,237.945114 381.705811,248.276260 383.605804,262.751770 
M366.494812,273.965546 
	C372.764526,258.317322 379.034241,242.669083 385.563812,226.372284 
	C380.149445,226.372284 375.818481,226.603790 371.524963,226.302292 
	C367.791321,226.040115 365.927460,227.209808 364.633881,230.941711 
	C361.093079,241.156677 357.045044,251.197052 353.117645,261.275299 
	C352.600006,262.603607 351.615234,263.749878 350.285034,265.880127 
	C345.549591,253.035812 341.285309,241.321136 336.856598,229.668945 
	C336.373718,228.398407 334.992126,226.615128 333.944214,226.556519 
	C328.390137,226.245911 322.809479,226.410599 316.467987,226.410599 
	C324.719910,246.777039 332.588593,266.312866 340.639557,285.773315 
	C341.107300,286.903870 343.004425,288.028534 344.318481,288.134186 
	C359.675659,289.368774 359.679749,289.316895 365.889313,275.086029 
	C365.955872,274.933533 366.037689,274.787689 366.494812,273.965546 
M88.502281,272.762970 
	C83.069069,272.762970 77.635849,272.762970 71.780945,272.762970 
	C71.780945,250.787354 71.780945,229.542313 71.780945,208.077087 
	C66.092690,208.077087 60.853912,208.077087 55.427998,208.077087 
	C55.427998,234.876968 55.427998,261.398224 55.427998,287.876068 
	C74.011513,287.876068 92.237144,287.876068 110.615730,287.876068 
	C110.615730,282.786102 110.615730,278.044708 110.615730,272.762787 
	C103.394958,272.762787 96.448257,272.762787 88.502281,272.762970 
z"/>
<path fill="#FDF7F6" opacity="1.000000" stroke="none" 
	d="
M135.288666,269.983826 
	C136.015228,271.371979 136.870605,273.395416 138.164490,273.731659 
	C146.428940,275.879517 154.549759,276.028046 162.298798,271.384491 
	C163.665253,270.565643 166.279160,270.784210 167.823853,271.536438 
	C170.574417,272.875824 172.948288,274.988800 176.483093,277.487549 
	C172.082870,280.403381 168.590546,283.136719 164.738983,285.199127 
	C145.480453,295.511688 120.841255,286.954315 114.227608,267.802124 
	C106.387665,245.098740 124.644661,222.767593 148.566025,225.279938 
	C162.578506,226.751633 171.440720,233.847595 176.119171,246.897873 
	C177.575287,250.959671 176.921051,253.084015 172.579193,254.751541 
	C160.159912,259.521301 147.926651,264.775391 135.288666,269.983826 
M135.518051,257.052704 
	C143.167526,253.748581 150.816986,250.444443 158.552612,247.103088 
	C154.008118,239.549988 146.304276,237.035233 138.797531,240.067429 
	C131.712372,242.929321 127.819580,250.807739 129.675781,259.084137 
	C131.406204,258.493469 133.098679,257.915771 135.518051,257.052704 
z"/>
<path fill="#FEF8F7" opacity="1.000000" stroke="none" 
	d="
M292.347412,288.743011 
	C275.022339,291.660095 260.737183,282.959412 255.119339,270.200104 
	C246.021713,249.537613 259.931915,223.579437 288.108673,225.298721 
	C313.549011,226.851028 325.003235,252.112656 316.168671,270.030182 
	C311.387787,279.726440 303.587708,286.230499 292.347412,288.743011 
M293.726044,272.621582 
	C298.242889,269.829926 300.790344,265.687103 301.857697,260.585236 
	C303.391510,253.253616 299.909882,245.411224 293.810669,242.305725 
	C286.672821,238.671387 278.182770,239.478607 273.923676,244.196594 
	C268.089142,250.659775 267.596436,260.083344 272.692200,267.750397 
	C277.139038,274.441101 283.762390,276.146790 293.726044,272.621582 
z"/>
<path fill="#FEF8F6" opacity="1.000000" stroke="none" 
	d="
M383.535706,262.320557 
	C381.705811,248.276260 386.951233,237.945114 398.041199,230.177139 
	C407.829559,223.320862 426.527863,223.790222 436.770996,231.362808 
	C447.565063,239.342682 451.873627,253.774643 448.193329,266.569092 
	C441.776520,288.877075 409.912445,298.460144 391.500092,278.491486 
	C387.348663,273.989227 384.103882,269.068726 383.535706,262.320557 
M428.157043,244.335587 
	C419.622864,238.691605 411.654114,238.488159 405.129333,243.747726 
	C400.142761,247.767319 398.135040,257.101105 401.140442,263.986511 
	C403.761261,269.990814 408.066864,273.988098 415.110504,274.267395 
	C421.284790,274.512268 426.925842,273.422638 429.998749,267.464844 
	C433.950134,259.803833 433.652344,252.144791 428.157043,244.335587 
z"/>
<path fill="#FEF8F7" opacity="1.000000" stroke="none" 
	d="
M245.613678,286.135834 
	C244.650803,286.833923 243.713760,288.089020 242.720642,288.135071 
	C238.092117,288.349701 233.448120,288.230164 228.128387,288.230164 
	C228.128387,283.549408 228.126984,279.281219 228.128708,275.013031 
	C228.131592,267.855072 228.151352,260.697083 228.136734,253.539154 
	C228.118576,244.646194 224.822540,241.021210 214.431534,240.125671 
	C205.734070,239.376083 200.194504,245.001038 200.092682,253.743149 
	C199.982178,263.230255 200.075607,272.719757 200.079803,282.208221 
	C200.080597,283.999146 200.079926,285.790039 200.079926,287.902161 
	C194.333649,287.902161 189.079926,287.902161 183.413757,287.902161 
	C183.413757,267.621582 183.413757,247.276932 183.413757,226.647339 
	C188.805389,226.647339 194.058212,226.647339 199.803146,226.647339 
	C199.949600,228.829636 200.089783,230.918304 200.282089,233.783829 
	C210.527451,224.394058 221.945541,222.893509 233.982254,228.427521 
	C241.303619,231.793625 243.978821,238.700638 245.217041,246.985413 
	C245.375504,248.201920 245.473343,248.677963 245.448608,249.578369 
	C245.429611,252.930527 245.533203,255.858307 245.503906,259.238007 
	C245.455826,262.188019 245.540604,264.686127 245.486557,267.567871 
	C245.439514,269.567322 245.531296,271.183167 245.489029,273.258057 
	C245.441208,277.856689 245.527451,281.996277 245.613678,286.135834 
z"/>
<path fill="#FEF7F6" opacity="1.000000" stroke="none" 
	d="
M366.303589,274.302124 
	C366.037689,274.787689 365.955872,274.933533 365.889313,275.086029 
	C359.679749,289.316895 359.675659,289.368774 344.318481,288.134186 
	C343.004425,288.028534 341.107300,286.903870 340.639557,285.773315 
	C332.588593,266.312866 324.719910,246.777039 316.467987,226.410599 
	C322.809479,226.410599 328.390137,226.245911 333.944214,226.556519 
	C334.992126,226.615128 336.373718,228.398407 336.856598,229.668945 
	C341.285309,241.321136 345.549591,253.035812 350.285034,265.880127 
	C351.615234,263.749878 352.600006,262.603607 353.117645,261.275299 
	C357.045044,251.197052 361.093079,241.156677 364.633881,230.941711 
	C365.927460,227.209808 367.791321,226.040115 371.524963,226.302292 
	C375.818481,226.603790 380.149445,226.372284 385.563812,226.372284 
	C379.034241,242.669083 372.764526,258.317322 366.303589,274.302124 
z"/>
<path fill="#FFFAF8" opacity="1.000000" stroke="none" 
	d="
M89.001923,272.762878 
	C96.448257,272.762787 103.394958,272.762787 110.615730,272.762787 
	C110.615730,278.044708 110.615730,282.786102 110.615730,287.876068 
	C92.237144,287.876068 74.011513,287.876068 55.427998,287.876068 
	C55.427998,261.398224 55.427998,234.876968 55.427998,208.077087 
	C60.853912,208.077087 66.092690,208.077087 71.780945,208.077087 
	C71.780945,229.542313 71.780945,250.787354 71.780945,272.762970 
	C77.635849,272.762970 83.069069,272.762970 89.001923,272.762878 
z"/>
<path fill="#EDA9A1" opacity="1.000000" stroke="none" 
	d="
M455.964478,279.085846 
	C459.490082,279.190521 463.052612,283.032013 467.178650,277.516479 
	C467.178650,282.109039 467.178650,285.238708 467.178650,288.368378 
	C464.287201,284.698883 461.843414,284.853149 459.560974,288.235382 
	C456.313263,286.558929 460.806396,281.470001 455.539490,280.633636 
	C455.476044,279.947327 455.720276,279.516602 455.964478,279.085846 
z"/>
<path fill="#CB221D" opacity="1.000000" stroke="none" 
	d="
M245.571167,249.154007 
	C245.473343,248.677963 245.375504,248.201920 245.358109,247.365479 
	C245.956955,247.906570 246.918365,248.804031 246.926666,249.710205 
	C247.035660,261.601501 247.016586,273.494019 246.983032,285.386108 
	C246.982147,285.701935 246.457565,286.016266 245.895447,286.233582 
	C245.527451,281.996277 245.441208,277.856689 245.619446,272.968872 
	C245.797745,270.541809 245.711578,268.863037 245.625397,267.184235 
	C245.540604,264.686127 245.455826,262.188019 245.638931,258.896667 
	C245.794952,255.120270 245.683060,252.137131 245.571167,249.154007 
z"/>
<path fill="#FCC0BB" opacity="1.000000" stroke="none" 
	d="
M455.541504,279.001038 
	C455.720276,279.516602 455.476044,279.947327 455.103699,280.592957 
	C454.975616,280.807892 454.714935,280.926880 454.468170,281.023438 
	C454.085510,281.242249 453.987183,281.389587 453.926422,281.562042 
	C453.926422,283.748779 453.926422,285.935516 453.926422,288.122284 
	C453.491760,288.160797 453.057098,288.199310 452.622437,288.237823 
	C451.894287,285.397400 451.166138,282.556976 450.232849,278.916229 
	C451.203857,278.916229 453.161194,278.916229 455.541504,279.001038 
z"/>
<path fill="#EDA9A1" opacity="1.000000" stroke="none" 
	d="
M454.054810,281.504822 
	C453.987183,281.389587 454.085510,281.242249 454.326630,281.045654 
	C454.434357,281.174652 454.351440,281.333435 454.054810,281.504822 
z"/>
<path fill="#DB2D25" opacity="1.000000" stroke="none" 
	d="
M135.154602,257.195374 
	C133.098679,257.915771 131.406204,258.493469 129.675781,259.084137 
	C127.819580,250.807739 131.712372,242.929321 138.797531,240.067429 
	C146.304276,237.035233 154.008118,239.549988 158.552612,247.103088 
	C150.816986,250.444443 143.167526,253.748581 135.154602,257.195374 
z"/>
<path fill="#DD2920" opacity="1.000000" stroke="none" 
	d="
M293.368591,272.802368 
	C283.762390,276.146790 277.139038,274.441101 272.692200,267.750397 
	C267.596436,260.083344 268.089142,250.659775 273.923676,244.196594 
	C278.182770,239.478607 286.672821,238.671387 293.810669,242.305725 
	C299.909882,245.411224 303.391510,253.253616 301.857697,260.585236 
	C300.790344,265.687103 298.242889,269.829926 293.368591,272.802368 
z"/>
<path fill="#DD281F" opacity="1.000000" stroke="none" 
	d="
M428.420288,244.608154 
	C433.652344,252.144791 433.950134,259.803833 429.998749,267.464844 
	C426.925842,273.422638 421.284790,274.512268 415.110504,274.267395 
	C408.066864,273.988098 403.761261,269.990814 401.140442,263.986511 
	C398.135040,257.101105 400.142761,247.767319 405.129333,243.747726 
	C411.654114,238.488159 419.622864,238.691605 428.420288,244.608154 
z"/>
<path fill="#E0251B" opacity="1.000000" stroke="none" 
	d="
M245.448593,249.578369 
	C245.683060,252.137131 245.794952,255.120270 245.771805,258.444763 
	C245.533203,255.858307 245.429611,252.930527 245.448593,249.578369 
z"/>
<path fill="#E0251B" opacity="1.000000" stroke="none" 
	d="
M245.486557,267.567871 
	C245.711578,268.863037 245.797745,270.541809 245.753494,272.509796 
	C245.531296,271.183167 245.439514,269.567322 245.486557,267.567871 
z"/>
</svg>