<?xml version="1.0" encoding="UTF-8"?>
<svg version="1.1" xmlns="http://www.w3.org/2000/svg" width="1500" height="295">
<path d="M0 0 C1.03640625 -0.02835938 2.0728125 -0.05671875 3.140625 -0.0859375 C11.95547969 1.03976905 19.56801419 5.7739295 27.125 10.1875 C36.02341714 15.30326355 45.00254782 20.24107366 54.0625 25.0625 C63.88744317 30.29838539 73.6752018 35.58727147 83.37597656 41.05029297 C86.14433313 42.59503821 88.92760218 44.11132371 91.7109375 45.62890625 C93.786632 46.77312251 95.86215447 47.91765092 97.9375 49.0625 C98.9066333 49.58537598 99.8757666 50.10825195 100.87426758 50.64697266 C108.83985499 55.07284041 114.89833797 59.16755303 118.10706234 67.98147106 C119.30714463 72.44913856 119.16568831 76.9307414 119.13818359 81.52929688 C119.14606903 83.16500389 119.14606903 83.16500389 119.15411377 84.83375549 C119.167264 88.42056817 119.15859298 92.00693319 119.1484375 95.59375 C119.15045966 98.09663986 119.15337227 100.59952914 119.15713501 103.10241699 C119.16155163 108.34094773 119.15543695 113.57936313 119.14111328 118.81787109 C119.12478926 124.85735445 119.13007874 130.89653388 119.1465925 136.93600988 C119.16189428 142.7676828 119.1602144 148.59924106 119.1514473 154.43092346 C119.1494502 156.90279686 119.15188728 159.37467806 119.15888596 161.84654236 C119.16652932 165.30480308 119.15485501 168.76248533 119.13818359 172.22070312 C119.14425629 173.23600601 119.15032898 174.2513089 119.15658569 175.29737854 C119.09617567 182.08311397 118.24147871 187.67089348 114.36303711 193.43701172 C109.03302132 198.66023924 102.86163117 202.00449707 96.3125 205.5 C95.11211492 206.15214185 93.91233568 206.80539998 92.71313477 207.4597168 C89.6556694 209.12438864 86.59083541 210.77493803 83.52355957 212.42144775 C80.76937244 213.90223327 78.02156314 215.39472155 75.2734375 216.88671875 C71.26532983 219.06159432 67.25468606 221.23167493 63.2421875 223.3984375 C58.41661987 226.00860818 53.60743847 228.6465164 48.8125 231.3125 C48.11777588 231.69841309 47.42305176 232.08432617 46.70727539 232.48193359 C42.246938 234.96643963 37.80278684 237.47846022 33.36328125 240 C31.6915686 240.94564819 31.6915686 240.94564819 29.98608398 241.91040039 C27.79660966 243.14946442 25.609778 244.39321349 23.42602539 245.64233398 C9.01379146 253.78767906 9.01379146 253.78767906 0.5 253.875 C-0.99273437 253.92140625 -0.99273437 253.92140625 -2.515625 253.96875 C-12.01988768 252.457612 -20.54515845 247.30495893 -28.75 242.5 C-37.60562379 237.40264894 -46.54333482 232.48698596 -55.5625 227.6875 C-65.41560802 222.43634318 -75.24082453 217.14591888 -84.96630859 211.66113281 C-86.62374635 210.72769448 -88.28319295 209.79782025 -89.94384766 208.87011719 C-92.79960977 207.27409222 -95.65028517 205.66929336 -98.5 204.0625 C-99.38228271 203.57048096 -100.26456543 203.07846191 -101.17358398 202.5715332 C-115.37817625 194.51435834 -115.37817625 194.51435834 -117.81502056 186.52180004 C-118.29359502 184.15984087 -118.38480205 181.9987506 -118.39717102 179.58869934 C-118.40432632 178.62857941 -118.41148163 177.66845947 -118.41885376 176.679245 C-118.42154266 175.63243057 -118.42423157 174.58561615 -118.42700195 173.50708008 C-118.43357315 172.39929199 -118.44014435 171.29150391 -118.44691467 170.15014648 C-118.4666357 166.48160738 -118.47830789 162.8131092 -118.48828125 159.14453125 C-118.49235678 157.89068823 -118.4964323 156.63684521 -118.50063133 155.34500694 C-118.51933776 149.39215296 -118.53390426 143.43931194 -118.5422433 137.48643571 C-118.55200525 130.63232845 -118.5783017 123.77854502 -118.61874419 116.92455178 C-118.65263919 110.97439864 -118.66439621 105.02432405 -118.66844749 99.07407188 C-118.67331303 96.54997246 -118.68492598 94.02587648 -118.70348549 91.50184059 C-118.72788011 87.96426382 -118.72691068 84.42752804 -118.7199707 80.88989258 C-118.73278076 79.85319931 -118.74559082 78.81650604 -118.75878906 77.74839783 C-118.70436497 70.11268516 -117.38926131 63.53317832 -111.85961914 57.97021484 C-110.98942139 57.38965332 -110.11922363 56.8090918 -109.22265625 56.2109375 C-108.25086426 55.55963867 -107.27907227 54.90833984 -106.27783203 54.23730469 C-101.50606406 51.30237112 -96.65027503 48.59707039 -91.6875 46 C-89.5542753 44.86405499 -87.42146538 43.72733073 -85.2890625 42.58984375 C-84.25426758 42.04054199 -83.21947266 41.49124023 -82.15332031 40.92529297 C-78.26447018 38.84875426 -74.40975452 36.71486445 -70.5625 34.5625 C-61.4257692 29.46478517 -52.26725182 24.40681132 -43.10253906 19.35961914 C-41.86131485 18.67596812 -40.6201038 17.99229319 -39.37890625 17.30859375 C-38.77126434 16.97390579 -38.16362244 16.63921783 -37.53756714 16.29438782 C-33.73590904 14.19882047 -29.94184544 12.09011514 -26.15234375 9.97265625 C-25.24081543 9.46532959 -24.32928711 8.95800293 -23.39013672 8.43530273 C-21.72932612 7.51051532 -20.07062231 6.58192904 -18.41455078 5.64868164 C-12.33634173 2.27315966 -7.07048647 0.08707496 0 0 Z M-12.0625 52.625 C-12.82498047 53.02074219 -13.58746094 53.41648437 -14.37304688 53.82421875 C-18.29484068 55.93942142 -20.48695177 57.13742953 -22.25 61.375 C-16.66231334 65.5028406 -10.70954735 68.80151062 -4.5625 72 C-3.76239502 72.41693115 -2.96229004 72.8338623 -2.13793945 73.26342773 C-0.42779306 74.15408405 1.28241419 75.0446235 2.99267578 75.93505859 C7.96833009 78.53346563 12.92756835 81.16077685 17.875 83.8125 C18.84139404 84.32055176 19.80778809 84.82860352 20.8034668 85.35205078 C21.69590088 85.83270996 22.58833496 86.31336914 23.5078125 86.80859375 C24.3033252 87.23197021 25.09883789 87.65534668 25.91845703 88.09155273 C27.75 89.375 27.75 89.375 28.75 92.375 C25.10182518 96.63948774 20.54844865 98.93318623 15.6875 101.5625 C14.46450195 102.23829102 14.46450195 102.23829102 13.21679688 102.92773438 C7.42526721 106.10189238 2.54087407 108.4808179 -4.25 107.375 C-8.13321394 105.81856405 -11.69190204 103.77359075 -15.3125 101.6875 C-16.34947021 101.10895264 -17.38644043 100.53040527 -18.45483398 99.93432617 C-21.73125125 98.10051239 -24.99240196 96.24201814 -28.25 94.375 C-29.85681641 93.45460938 -29.85681641 93.45460938 -31.49609375 92.515625 C-32.54925781 91.91234375 -33.60242188 91.3090625 -34.6875 90.6875 C-35.71609131 90.10057373 -36.74468262 89.51364746 -37.80444336 88.90893555 C-39.76603561 87.78636539 -41.72285099 86.65539398 -43.67407227 85.51489258 C-48.46102423 82.75782601 -52.78791316 80.38263689 -58.25 79.375 C-63.88543375 81.15461066 -68.86639395 84.07084748 -73.125 88.1875 C-74.70427232 91.25830729 -74.32119154 93.96967125 -74.25 97.375 C-73.15836548 97.95447388 -73.15836548 97.95447388 -72.04467773 98.5456543 C-59.12900238 105.41043254 -46.2344297 112.30264599 -33.5 119.5 C-32.58017334 120.01908936 -31.66034668 120.53817871 -30.71264648 121.07299805 C-26.69444603 123.35671813 -22.69339676 125.66967035 -18.734375 128.0546875 C-18.10756836 128.43093262 -17.48076172 128.80717773 -16.83496094 129.19482422 C-15.25 130.375 -15.25 130.375 -13.25 133.375 C-13.00517273 136.16976929 -13.00517273 136.16976929 -13.01049805 139.60302734 C-13.00676682 140.88801117 -13.00303558 142.172995 -12.99919128 143.49691772 C-13.00149435 144.18337749 -13.00379742 144.86983727 -13.00617027 145.57709885 C-13.01176733 147.7296216 -13.00259884 149.88160624 -12.9889679 152.03408813 C-12.95185663 158.15328345 -12.93329431 164.27229686 -12.94458008 170.39160156 C-12.95043968 174.13657086 -12.93213001 177.88078383 -12.89869118 181.62559891 C-12.89074863 183.05048127 -12.8919988 184.47544632 -12.90271568 185.90031052 C-12.91708008 187.89623396 -12.89806905 189.89231255 -12.87768555 191.88818359 C-12.87705612 193.02274994 -12.8764267 194.15731628 -12.8757782 195.32626343 C-11.93407355 199.91416602 -9.10315784 202.07778951 -5.375 204.6875 C-1.36277269 205.98557354 2.05824393 206.15766295 5.9453125 204.359375 C10.44277713 201.8194669 10.44277713 201.8194669 12.75 197.375 C12.84733504 195.33136007 12.88546234 193.28471614 12.8918457 191.23876953 C12.89888016 189.97380646 12.90591461 188.70884338 12.91316223 187.4055481 C12.91497812 186.72988926 12.91679401 186.05423042 12.91866493 185.35809708 C12.92584407 183.2392723 12.94152097 181.12067728 12.96000671 179.00192261 C13.01241001 172.97836444 13.06044907 166.95493361 13.07592773 160.93115234 C13.08602121 157.2445711 13.1153772 153.55857064 13.15724754 149.87221909 C13.16954134 148.46968864 13.17468174 147.06707611 13.17244911 145.66449356 C13.1700909 143.69960645 13.19448423 141.73474276 13.2199707 139.77001953 C13.22877007 138.09481735 13.22877007 138.09481735 13.23774719 136.38577271 C13.86736168 132.68520514 15.16304695 131.04847211 17.75 128.375 C20.57495117 126.53808594 20.57495117 126.53808594 23.79296875 124.859375 C24.94861328 124.24835938 26.10425781 123.63734375 27.29492188 123.0078125 C28.5088968 122.37978717 29.72309218 121.75218783 30.9375 121.125 C33.32856711 119.87309272 35.71680266 118.61586416 38.10546875 117.359375 C39.16403076 116.80991211 40.22259277 116.26044922 41.31323242 115.69433594 C43.63070537 114.58934351 43.63070537 114.58934351 44.75 113.375 C46.4 113.375 48.05 113.375 49.75 113.375 C50.08 134.165 50.41 154.955 50.75 176.375 C55.00881314 177.49300513 55.00881314 177.49300513 58.5 175.6796875 C59.1909375 175.29296875 59.881875 174.90625 60.59375 174.5078125 C61.3053125 174.09273438 62.016875 173.67765625 62.75 173.25 C63.4615625 172.858125 64.173125 172.46625 64.90625 172.0625 C69.13894311 169.64607446 71.98344259 167.50254133 74.75 163.375 C75.35963962 159.97196879 75.35963962 159.97196879 75.28344727 156.20141602 C75.29206284 155.49831299 75.30067841 154.79520996 75.30955505 154.07080078 C75.33217866 151.75645685 75.32548333 149.44332749 75.31640625 147.12890625 C75.32164377 145.51374453 75.32792072 143.89858587 75.33518982 142.28343201 C75.34558752 138.9016173 75.34104236 135.52022353 75.32641602 132.13842773 C75.30923518 127.81271989 75.33271667 123.48834124 75.36790562 119.16278172 C75.38990783 115.82805137 75.38843133 112.49363764 75.3801403 109.15885735 C75.3793222 107.56450887 75.38615879 105.97013683 75.40091133 104.3758564 C75.41840983 102.14240932 75.40377529 99.91133197 75.38110352 97.67797852 C75.38014175 96.40954605 75.37917999 95.14111359 75.37818909 93.83424377 C74.54657572 89.25480516 72.9984737 87.66208998 69.75 84.375 C67.19375563 82.56123108 67.19375563 82.56123108 64.3828125 81.18359375 C63.34374756 80.63791748 62.30468262 80.09224121 61.23413086 79.5300293 C59.57136108 78.67985229 59.57136108 78.67985229 57.875 77.8125 C55.52356972 76.58028145 53.17337586 75.34590126 50.82421875 74.109375 C50.23059036 73.79860519 49.63696198 73.48783539 49.02534485 73.16764832 C43.17115896 70.09537004 37.42650487 66.84332212 31.6875 63.5625 C28.91386595 61.98993368 26.13863285 60.4202313 23.36279297 58.8515625 C21.6472321 57.88205099 19.93267933 56.91075303 18.21923828 55.9375 C15.90456331 54.62995241 13.5796193 53.34318347 11.25 52.0625 C10.58605225 51.68311279 9.92210449 51.30372559 9.23803711 50.9128418 C1.0134593 46.45764132 -4.43980033 48.40706211 -12.0625 52.625 Z M-73.25 112.375 C-74.86300076 113.98800076 -74.4098054 115.75160856 -74.44287109 117.9831543 C-74.45893402 118.96475021 -74.47499695 119.94634613 -74.49154663 120.95768738 C-74.53590204 125.46617066 -74.5770864 129.97450376 -74.60009766 134.4831543 C-74.61663763 136.86053266 -74.64390143 139.23786169 -74.68212891 141.61499023 C-74.73693854 145.03916279 -74.75878167 148.46216636 -74.7734375 151.88671875 C-74.79610687 152.94630295 -74.81877625 154.00588715 -74.84213257 155.09757996 C-74.86437639 161.4776017 -74.86437639 161.4776017 -71.92822266 166.94482422 C-68.83073735 169.75543213 -65.88339727 171.79006412 -62.25 173.8125 C-61.34507813 174.35680664 -61.34507813 174.35680664 -60.421875 174.91210938 C-56.51418338 177.13354711 -54.53277401 177.47903848 -50.25 176.375 C-50.14863783 169.18518098 -50.0785504 161.99554598 -50.03027344 154.80517578 C-50.01014948 152.35881667 -49.9828474 149.91250571 -49.94824219 147.46630859 C-49.89976037 143.95137659 -49.87703872 140.43708016 -49.859375 136.921875 C-49.83872986 135.8269574 -49.81808472 134.73203979 -49.79681396 133.60394287 C-49.79636078 132.07280853 -49.79636078 132.07280853 -49.79589844 130.51074219 C-49.78701599 129.61361511 -49.77813354 128.71648804 -49.76898193 127.79217529 C-50.40412451 124.60050526 -51.79483875 123.43589525 -54.25 121.375 C-56.20972056 120.06760786 -56.20972056 120.06760786 -58.2890625 119.015625 C-59.03414062 118.62246094 -59.77921875 118.22929687 -60.546875 117.82421875 C-61.69929688 117.23060547 -61.69929688 117.23060547 -62.875 116.625 C-64.03902344 116.00818359 -64.03902344 116.00818359 -65.2265625 115.37890625 C-69.04507766 113.17168848 -69.04507766 113.17168848 -73.25 112.375 Z " fill="#293239" transform="translate(127.25,23.625)"/>
<path d="M0 0 C0.73283203 0.00064453 1.46566406 0.00128906 2.22070312 0.00195312 C3.34702148 0.02612305 3.34702148 0.02612305 4.49609375 0.05078125 C5.25083984 0.04755859 6.00558594 0.04433594 6.78320312 0.04101562 C14.09935716 0.11192108 14.09935716 0.11192108 16.93359375 2.36328125 C17.68359375 5.98828125 17.68359375 5.98828125 17.93359375 9.36328125 C18.53945313 8.96496094 19.1453125 8.56664063 19.76953125 8.15625 C20.60742188 7.62644531 21.4453125 7.09664063 22.30859375 6.55078125 C23.12070312 6.02871094 23.9328125 5.50664063 24.76953125 4.96875 C32.83822998 0.87463249 40.46849153 -0.11915673 49.43359375 -0.01171875 C50.88572266 -0.02912109 50.88572266 -0.02912109 52.3671875 -0.046875 C64.30255265 0.00118687 75.43603618 3.68859036 84.05859375 12.23828125 C84.67734375 12.93953125 85.29609375 13.64078125 85.93359375 14.36328125 C89.05632275 12.93232417 91.54225587 11.1568795 94.24609375 9.05078125 C104.77954609 1.76425416 114.6757334 -0.06828633 127.24609375 -0.13671875 C128.74873779 -0.14626587 128.74873779 -0.14626587 130.28173828 -0.15600586 C141.98672015 0.04433574 152.51329356 3.38576038 161.19921875 11.47265625 C172.91695356 24.05837142 174.39982369 38.21778591 174.296875 54.7734375 C174.29635538 56.43444315 174.29687702 58.09544942 174.29838562 59.75645447 C174.2982965 63.21330104 174.28798121 66.66991145 174.26977539 70.12670898 C174.24692943 74.56210323 174.24657925 78.99715814 174.25329304 83.43259525 C174.2566265 86.85116103 174.2500174 90.26964896 174.2401638 93.6882 C174.23631271 95.3249108 174.23516321 96.96163024 174.23674965 98.5983448 C174.23711907 100.87440834 174.22454071 103.15002832 174.20825195 105.42602539 C174.20364456 106.72077286 174.19903717 108.01552032 174.19429016 109.34950256 C173.93359375 112.36328125 173.93359375 112.36328125 171.93359375 114.36328125 C168.11905089 114.81748962 164.27206861 114.68732901 160.43359375 114.67578125 C158.82677734 114.69995117 158.82677734 114.69995117 157.1875 114.72460938 C156.16527344 114.72525391 155.14304687 114.72589844 154.08984375 114.7265625 C153.14947266 114.72954346 152.20910156 114.73252441 151.24023438 114.7355957 C150.47904297 114.61273193 149.71785156 114.48986816 148.93359375 114.36328125 C146.54407071 110.77899669 146.68279884 109.19672727 146.67822266 104.93920898 C146.67279198 103.96778206 146.67279198 103.96778206 146.66725159 102.97673035 C146.66036144 101.57064153 146.65785144 100.164526 146.65919876 98.75842094 C146.66016584 96.52472367 146.64719734 94.2915053 146.63021851 92.05787659 C146.58402506 85.70716149 146.55937942 79.35649252 146.55273438 73.00561523 C146.54768646 69.11806083 146.52326418 65.23100081 146.48740768 61.34361458 C146.47767719 59.86984301 146.47524048 58.3960028 146.48057938 56.92220879 C146.56605355 43.43987075 146.56605355 43.43987075 140.5218811 31.72557068 C134.42080812 26.27826689 128.37256095 25.91482581 120.515625 26.0546875 C113.71587711 26.64048912 108.2182996 28.5677948 103.49609375 33.61328125 C96.24793367 43.19559458 96.78179651 54.628638 96.6875 66.1015625 C96.66300165 68.1135114 96.6384921 70.12546025 96.61330318 72.13740063 C96.55268472 77.07890345 96.50156673 82.02048811 96.45678711 86.9621582 C96.4311908 89.74562892 96.4004137 92.52895155 96.36399841 95.31230164 C96.33008837 97.93087037 96.304215 100.54955747 96.28700256 103.16828918 C96.27036057 104.3467894 96.25371857 105.52528961 96.23657227 106.73950195 C96.2262648 107.77984085 96.21595734 108.82017975 96.20533752 109.89204407 C95.93359375 112.36328125 95.93359375 112.36328125 93.93359375 114.36328125 C90.11905089 114.81748962 86.27206861 114.68732901 82.43359375 114.67578125 C80.82677734 114.69995117 80.82677734 114.69995117 79.1875 114.72460938 C78.16527344 114.72525391 77.14304687 114.72589844 76.08984375 114.7265625 C75.14947266 114.72954346 74.20910156 114.73252441 73.24023438 114.7355957 C72.47904297 114.61273193 71.71785156 114.48986816 70.93359375 114.36328125 C68.55945604 110.80207468 68.68284579 109.27175791 68.67822266 105.046875 C68.67126373 103.74121582 68.66430481 102.43555664 68.65713501 101.09033203 C68.65781605 100.39200256 68.65849709 99.6936731 68.65919876 98.97418213 C68.66016628 96.77801285 68.64719148 94.58233009 68.63021851 92.38623047 C68.58404338 86.14212934 68.55938774 79.89807455 68.55273438 73.65380859 C68.5476797 69.83108508 68.52322247 66.0088627 68.48740768 62.18630981 C68.47769103 60.738485 68.47523271 59.29059047 68.48057938 57.84274292 C68.53554433 43.90474229 68.53554433 43.90474229 62.5218811 31.65844727 C56.45722945 26.26203903 50.30065703 25.91610578 42.515625 26.0546875 C35.71587711 26.64048912 30.2182996 28.5677948 25.49609375 33.61328125 C20.12023192 40.70516677 18.83805028 48.88019527 18.76000977 57.61230469 C18.74651993 58.82666199 18.73303009 60.04101929 18.71913147 61.29217529 C18.70869308 62.58923401 18.6982547 63.88629272 18.6875 65.22265625 C18.67198318 66.57693264 18.65577256 67.93120124 18.63890076 69.28546143 C18.56840954 75.01687702 18.50778047 80.7483584 18.45678711 86.47998047 C18.4250496 89.994803 18.38380729 93.50940842 18.33659172 97.02405548 C18.31276916 99.01268744 18.29982365 101.00144002 18.28700256 102.99017334 C18.27036057 104.191922 18.25371857 105.39367065 18.23657227 106.63183594 C18.2262648 107.69295593 18.21595734 108.75407593 18.20533752 109.84735107 C17.93359375 112.36328125 17.93359375 112.36328125 15.93359375 114.36328125 C13.62695312 114.62207031 13.62695312 114.62207031 10.77734375 114.62890625 C9.24400391 114.63277344 9.24400391 114.63277344 7.6796875 114.63671875 C6.60847656 114.62898438 5.53726562 114.62125 4.43359375 114.61328125 C2.82677734 114.62488281 2.82677734 114.62488281 1.1875 114.63671875 C0.16527344 114.63414062 -0.85695313 114.6315625 -1.91015625 114.62890625 C-2.85052734 114.62665039 -3.79089844 114.62439453 -4.75976562 114.62207031 C-7.06640625 114.36328125 -7.06640625 114.36328125 -9.06640625 112.36328125 C-9.32646847 110.42327213 -9.32646847 110.42327213 -9.34056091 108.00489807 C-9.35053604 107.08934143 -9.36051117 106.17378479 -9.37078857 105.23048401 C-9.37145325 104.2231572 -9.37211792 103.21583038 -9.37280273 102.17797852 C-9.38528801 100.59005997 -9.38528801 100.59005997 -9.39802551 98.97006226 C-9.42220097 95.45656705 -9.43090643 91.94325716 -9.4375 88.4296875 C-9.44645981 85.99592531 -9.45558152 83.56216371 -9.46485901 81.12840271 C-9.48137157 76.02137917 -9.48905339 70.91442138 -9.49194336 65.80737305 C-9.49733275 59.25183816 -9.53502695 52.69691784 -9.58068752 46.14155674 C-9.61037528 41.11363956 -9.6176651 36.08587192 -9.61866951 31.05787468 C-9.62288745 28.64045328 -9.63538414 26.22303206 -9.65618706 23.80569649 C-9.68293191 20.42932566 -9.67832592 17.05439983 -9.66577148 13.67797852 C-9.68802292 12.17002464 -9.68802292 12.17002464 -9.71072388 10.63160706 C-9.68388828 8.10742782 -9.62790959 5.82409366 -9.06640625 3.36328125 C-6.16252577 0.8054644 -3.83406574 -0.01730216 0 0 Z " fill="#293239" transform="translate(346.06640625,92.63671875)"/>
<path d="M0 0 C1.01642578 -0.01611328 2.03285156 -0.03222656 3.08007812 -0.04882812 C18.35309615 -0.05856236 31.90283382 5.35849406 42.9375 15.96875 C54.99074312 28.52421158 59.63009544 42.76641303 59.55102539 59.92797852 C59.21838485 75.19544006 53.99876173 88.43530853 43.5 99.625 C30.93646293 111.5011703 15.15246278 116.66115215 -1.97119141 116.26220703 C-18.27682121 115.23249689 -33.39040121 109.25811165 -44.8125 97.3125 C-55.87277614 84.27059106 -59.74401586 68.08432031 -58.54125977 51.26782227 C-57.12201378 36.41853606 -50.75292165 23.46068422 -39.8125 13.3125 C-27.45096424 4.05963448 -15.33743477 -0.04807973 0 0 Z M-25.125 37.125 C-31.17504124 45.89508703 -31.77160579 54.81745732 -30.8125 65.3125 C-29.00388957 74.32142743 -24.2585584 81.0524721 -17.0546875 86.6875 C-10.21743967 91.01245677 -1.33800677 92.41022171 6.52734375 90.84765625 C15.78081776 88.43804591 22.9593621 84.08018625 27.96875 75.80078125 C32.52950349 66.48924288 33.51058415 56.66733659 31.00390625 46.640625 C28.44710067 39.34944737 24.00267531 32.21385259 17.1875 28.3125 C1.25872829 21.86849628 -13.91451001 23.33170105 -25.125 37.125 Z " fill="#293239" transform="translate(1010.8125,92.6875)"/>
<path d="M0 0 C0.81146484 -0.01224609 1.62292969 -0.02449219 2.45898438 -0.03710938 C3.24466797 -0.03904297 4.03035156 -0.04097656 4.83984375 -0.04296875 C5.55390381 -0.04707764 6.26796387 -0.05118652 7.00366211 -0.05541992 C9.0625 0.1875 9.0625 0.1875 13.0625 2.1875 C13.3925 16.3775 13.7225 30.5675 14.0625 45.1875 C19.52359547 42.06687402 22.38755283 40.19520824 26.5 35.875 C30.10340114 32.15494638 33.76796794 28.62022942 37.70703125 25.2578125 C41.04008772 22.32826038 44.26388543 19.28584421 47.5 16.25 C56.37027659 7.94945462 56.37027659 7.94945462 60.3125 4.375 C60.97765625 3.77042969 61.6428125 3.16585937 62.328125 2.54296875 C67.10068392 -1.18693653 73.83003187 0.0032025 79.5625 0 C80.71621094 -0.01224609 81.86992188 -0.02449219 83.05859375 -0.03710938 C84.71568359 -0.04000977 84.71568359 -0.04000977 86.40625 -0.04296875 C87.92508789 -0.04913208 87.92508789 -0.04913208 89.47460938 -0.05541992 C92.0625 0.1875 92.0625 0.1875 95.0625 2.1875 C94.76265148 7.63315658 91.59876669 10.18414787 87.90234375 13.7734375 C87.27904678 14.39344635 86.65574982 15.0134552 86.01356506 15.6522522 C84.01822105 17.63186671 82.00916947 19.59692958 80 21.5625 C78.67426794 22.87673493 77.3493887 24.19183072 76.02539062 25.5078125 C69.87544636 31.59947212 63.71382409 37.63812483 57.0625 43.1875 C54.55569339 45.18536681 54.55569339 45.18536681 53.0625 47.1875 C53.38318262 51.28307518 55.96847713 53.93922501 58.4375 57.0625 C58.88230713 57.62912354 59.32711426 58.19574707 59.78540039 58.77954102 C60.72893986 59.98009491 61.67538306 61.1783716 62.62451172 62.37451172 C64.01795996 64.13134476 65.40302819 65.89440898 66.78515625 67.66015625 C69.07537954 70.58467146 71.37229749 73.50383847 73.67138672 76.42138672 C76.42376829 79.91572303 79.17037073 83.41460457 81.91748047 86.91308594 C84.31793149 89.96945913 86.72130415 93.02347444 89.12890625 96.07421875 C89.63035156 96.71037109 90.13179687 97.34652344 90.6484375 98.00195312 C91.60976881 99.22141969 92.57196435 100.44020561 93.53515625 101.65820312 C95.47499364 104.12052648 97.32248061 106.57747091 99.0625 109.1875 C98.6875 111.875 98.6875 111.875 98.0625 114.1875 C72.92250795 116.86635161 72.92250795 116.86635161 65.44482422 112.74462891 C61.16762443 108.9853364 58.26503215 104.35122839 55.42578125 99.45751953 C53.37949792 96.05022326 50.89312815 93.06454781 48.375 90 C47.49645865 88.88167925 46.62143642 87.76058474 45.75 86.63671875 C42.80398679 82.85227544 39.8397413 79.08227853 36.875 75.3125 C35.94394861 74.12765274 35.01295298 72.94276165 34.08203125 71.7578125 C33.41558594 70.90960938 32.74914062 70.06140625 32.0625 69.1875 C27.84528369 69.68536581 25.92273246 72.02204455 23.0625 75 C22.216875 75.87269531 21.37125 76.74539062 20.5 77.64453125 C19.695625 78.48371094 18.89125 79.32289063 18.0625 80.1875 C17.36334473 80.76701416 16.66418945 81.34652832 15.94384766 81.94360352 C13.43839303 84.93187675 13.55131165 86.7681433 13.5234375 90.6328125 C13.50023437 91.87417969 13.47703125 93.11554688 13.453125 94.39453125 C13.44796875 95.68746094 13.4428125 96.98039062 13.4375 98.3125 C13.41207679 100.87770158 13.37864255 103.44284042 13.3359375 106.0078125 C13.32997559 107.14492676 13.32401367 108.28204102 13.31787109 109.45361328 C13.0625 112.1875 13.0625 112.1875 11.0625 114.1875 C7.24795714 114.64170837 3.40097486 114.51154776 -0.4375 114.5 C-2.04431641 114.52416992 -2.04431641 114.52416992 -3.68359375 114.54882812 C-4.70582031 114.54947266 -5.72804688 114.55011719 -6.78125 114.55078125 C-7.72162109 114.55376221 -8.66199219 114.55674316 -9.63085938 114.55981445 C-10.77264648 114.3755188 -10.77264648 114.3755188 -11.9375 114.1875 C-14.02754993 111.0524251 -14.1880308 110.35043464 -14.19146729 106.78479004 C-14.19710693 105.88468704 -14.20274658 104.98458405 -14.20855713 104.0572052 C-14.20450867 103.07217514 -14.20046021 102.08714508 -14.19628906 101.07226562 C-14.1997937 100.03301437 -14.20329834 98.99376312 -14.20690918 97.92301941 C-14.21572823 94.47986212 -14.20987664 91.03690947 -14.203125 87.59375 C-14.2044716 85.20625774 -14.20641208 82.81876574 -14.20892334 80.43127441 C-14.21187484 75.42437126 -14.20757606 70.41753941 -14.19824219 65.41064453 C-14.18684771 58.98425878 -14.19340703 52.55804008 -14.20538712 46.13166046 C-14.21260497 41.20069107 -14.21031812 36.26976146 -14.20513153 31.33879089 C-14.20379483 28.96884644 -14.20544346 26.5988984 -14.21009064 24.22895813 C-14.21515457 20.92011919 -14.2074473 17.61155294 -14.19628906 14.30273438 C-14.20033752 13.31770432 -14.20438599 12.33267426 -14.20855713 11.3177948 C-14.20291748 10.4176918 -14.19727783 9.51758881 -14.19146729 8.59020996 C-14.19071323 7.807817 -14.18995918 7.02542404 -14.18918228 6.2193222 C-13.9375 4.1875 -13.9375 4.1875 -11.9375 1.1875 C-7.91560055 -0.15313315 -4.21087478 0.00332875 0 0 Z " fill="#293239" transform="translate(693.9375,92.8125)"/>
<path d="M0 0 C0.77666016 -0.00386719 1.55332031 -0.00773437 2.35351562 -0.01171875 C3.15595703 -0.00011719 3.95839844 0.01148437 4.78515625 0.0234375 C5.58373047 0.01183594 6.38230469 0.00023438 7.20507812 -0.01171875 C8.37200195 -0.00591797 8.37200195 -0.00591797 9.5625 0 C10.61618774 0.00507568 10.61618774 0.00507568 11.69116211 0.01025391 C14.8515182 0.57913947 16.43382978 1.22045358 18.84765625 3.3984375 C19.62322657 6.47114632 19.56876936 9.50428603 19.5546875 12.66015625 C19.56980881 13.56594925 19.58493011 14.47174225 19.60050964 15.40498352 C19.64350761 18.29888568 19.65223617 21.19174726 19.66015625 24.0859375 C19.68329119 26.04755394 19.70865443 28.00914546 19.73632812 29.97070312 C19.79929991 34.78004039 19.83154066 39.58872416 19.84765625 44.3984375 C23.24193576 43.65861384 24.72349405 42.84352571 27.09765625 40.2734375 C30.11184645 37.03542129 33.36946217 34.17573342 36.70703125 31.28076172 C40.12297566 28.27700586 43.41859158 25.14910133 46.72265625 22.0234375 C69.825197 0.27402639 69.825197 0.27402639 77.40625 0.265625 C78.51419922 0.26433594 79.62214844 0.26304688 80.76367188 0.26171875 C81.92576172 0.26558594 83.08785156 0.26945312 84.28515625 0.2734375 C85.44337891 0.26957031 86.60160156 0.26570313 87.79492188 0.26171875 C89.4587793 0.26365234 89.4587793 0.26365234 91.15625 0.265625 C92.17517334 0.26675293 93.19409668 0.26788086 94.24389648 0.26904297 C96.84765625 0.3984375 96.84765625 0.3984375 99.84765625 1.3984375 C100.19060015 4.56300275 100.15424802 5.97623126 98.25317383 8.5941925 C97.50704834 9.32921494 96.76092285 10.06423737 95.9921875 10.8215332 C95.15131592 11.66202713 94.31044434 12.50252106 93.4440918 13.3684845 C92.52539307 14.2613768 91.60669434 15.1542691 90.66015625 16.07421875 C89.72792236 16.9993779 88.79568848 17.92453705 87.83520508 18.87773132 C85.36037077 21.33350322 82.87089055 23.77388912 80.37805176 26.21136475 C77.8354593 28.70274841 75.30701684 31.20840203 72.77734375 33.71289062 C67.81453264 38.62212772 62.83610188 43.51525449 57.84765625 48.3984375 C60.0064347 52.28704004 62.06748672 55.94025333 64.94921875 59.34375 C65.80036255 60.36021606 65.80036255 60.36021606 66.66870117 61.3972168 C67.56165894 62.44969604 67.56165894 62.44969604 68.47265625 63.5234375 C74.01968013 70.15729565 79.36616524 76.89183487 84.6015625 83.77294922 C86.8857546 86.75260263 89.21283987 89.69847873 91.53515625 92.6484375 C91.99535156 93.23713623 92.45554687 93.82583496 92.9296875 94.43237305 C94.94990669 97.0133195 96.98599584 99.56271577 99.09765625 102.0703125 C99.73703125 102.83859375 100.37640625 103.606875 101.03515625 104.3984375 C101.86080078 105.3575 101.86080078 105.3575 102.703125 106.3359375 C104.23041442 109.08818601 103.92494326 111.29640614 103.84765625 114.3984375 C99.72245402 114.62271662 95.59965568 114.78502249 91.46972656 114.89282227 C90.06870669 114.93779288 88.66810239 114.99900082 87.26855469 115.07739258 C75.70520933 115.70834545 75.70520933 115.70834545 71.27392578 112.58349609 C69.22129856 110.29415733 67.52381928 107.97299652 65.84765625 105.3984375 C64.960277 104.27503017 64.06303995 103.15927719 63.15234375 102.0546875 C62.35054687 101.013125 61.54875 99.9715625 60.72265625 98.8984375 C55.25861709 91.85412697 49.59945262 84.97939547 43.9140625 78.11328125 C41.52862809 75.23169977 39.1727606 72.32909728 36.84765625 69.3984375 C32.75116625 71.05488745 29.82633997 73.97807925 26.66015625 76.9609375 C26.11423828 77.46818359 25.56832031 77.97542969 25.00585938 78.49804688 C21.07380615 81.65033584 21.07380615 81.65033584 19.67407227 86.03466797 C19.65014404 87.18338379 19.62621582 88.33209961 19.6015625 89.515625 C19.56869141 90.76214844 19.53582031 92.00867188 19.50195312 93.29296875 C19.4409373 95.93871882 19.38362323 98.58455694 19.33007812 101.23046875 C19.29591797 102.47957031 19.26175781 103.72867188 19.2265625 105.015625 C19.20150635 106.16659668 19.1764502 107.31756836 19.15063477 108.50341797 C18.84765625 111.3984375 18.84765625 111.3984375 16.84765625 114.3984375 C14.54101562 114.77075195 14.54101562 114.77075195 11.69140625 114.76171875 C10.66917969 114.76107422 9.64695312 114.76042969 8.59375 114.75976562 C7.52253906 114.74365234 6.45132812 114.72753906 5.34765625 114.7109375 C3.74083984 114.71577148 3.74083984 114.71577148 2.1015625 114.72070312 C-5.88547371 114.66530754 -5.88547371 114.66530754 -8.15234375 112.3984375 C-8.40961266 110.45842838 -8.40961266 110.45842838 -8.41976929 108.04005432 C-8.42829926 107.12449768 -8.43682922 106.20894104 -8.44561768 105.26564026 C-8.4447113 104.25831345 -8.44380493 103.25098663 -8.44287109 102.21313477 C-8.44958832 101.1545224 -8.45630554 100.09591003 -8.46322632 99.00521851 C-8.48228719 95.49171304 -8.48613451 91.97839775 -8.48828125 88.46484375 C-8.49470324 86.03108134 -8.50143113 83.59731971 -8.50845337 81.16355896 C-8.52044618 76.05653085 -8.5241321 70.9495705 -8.52294922 65.8425293 C-8.52274585 59.28707877 -8.55005831 52.73206089 -8.58449364 46.17671299 C-8.60669154 41.14879853 -8.61078895 36.12098939 -8.60972977 31.09303093 C-8.61209607 28.67562302 -8.62097696 26.25821264 -8.6363945 23.84085274 C-8.65591165 20.46463526 -8.65027237 17.08936635 -8.63818359 13.71313477 C-8.64942261 12.70783218 -8.66066162 11.7025296 -8.67224121 10.66676331 C-8.66385223 9.74838684 -8.65546326 8.83001038 -8.64682007 7.88380432 C-8.6479096 7.08536386 -8.64899914 6.28692339 -8.65012169 5.46428776 C-8.15234375 3.3984375 -8.15234375 3.3984375 -6.24813271 1.64236355 C-3.9360953 0.27008628 -2.66319218 0.01284941 0 0 Z " fill="#293239" transform="translate(1369.15234375,92.6015625)"/>
<path d="M0 0 C0.85514191 -0.00571014 1.71028381 -0.01142029 2.59133911 -0.01730347 C3.52647339 -0.01842133 4.46160767 -0.01953918 5.42507935 -0.02069092 C6.41235016 -0.02565582 7.39962097 -0.03062073 8.41680908 -0.03573608 C11.68796481 -0.05036013 14.95907206 -0.05715981 18.23025513 -0.06268311 C20.50085451 -0.06843395 22.77145387 -0.0741917 25.04205322 -0.07995605 C29.80514757 -0.09046646 34.56822503 -0.09630901 39.33132935 -0.09979248 C45.43695093 -0.10528004 51.54234983 -0.12931366 57.64790154 -0.15776443 C62.33875177 -0.17637954 67.02954822 -0.1815958 71.72043228 -0.18312836 C73.97151025 -0.18615749 76.22258722 -0.19419477 78.473629 -0.20731354 C81.62168121 -0.22435163 84.76918734 -0.22249919 87.91726685 -0.21600342 C89.31389557 -0.22982559 89.31389557 -0.22982559 90.73873901 -0.243927 C95.54293388 -0.21284444 98.95028153 -0.0884909 102.80056763 3.14044189 C103.415802 5.26934814 103.415802 5.26934814 103.39431763 7.70294189 C103.3917395 8.58208252 103.38916138 9.46122314 103.38650513 10.36700439 C103.35814575 11.28223877 103.32978638 12.19747314 103.30056763 13.14044189 C103.30443481 14.51329346 103.30443481 14.51329346 103.30838013 15.91387939 C103.20990906 22.62960595 103.20990906 22.62960595 101.5136261 24.74647522 C98.56290063 27.14756838 94.84504776 26.62356885 91.19509888 26.65216064 C90.35589401 26.67011185 89.51668915 26.68806305 88.65205383 26.70655823 C85.97244284 26.76072753 83.29301061 26.79457762 80.61306763 26.82794189 C78.79598542 26.86110919 76.97892683 26.8955983 75.16189575 26.93145752 C70.70824858 27.01645762 66.25465504 27.08323691 61.80056763 27.14044189 C61.79248077 28.20088715 61.78439392 29.2613324 61.77606201 30.35391235 C61.69869225 40.33094387 61.61097651 50.30783748 61.51304054 60.28468895 C61.46302151 65.41431328 61.41669213 70.54391645 61.37869263 75.67364502 C61.34191046 80.62094345 61.29557014 85.56806719 61.24250412 90.51521683 C61.22392246 92.4058896 61.20882856 94.29659987 61.19722366 96.18732834 C61.18042547 98.82862114 61.15140673 101.46951053 61.11941528 104.11065674 C61.1172551 104.89827896 61.11509491 105.68590118 61.11286926 106.49739075 C61.02867195 111.91233757 61.02867195 111.91233757 58.80056763 114.14044189 C54.81901427 114.59639136 50.80521634 114.46447602 46.80056763 114.45294189 C45.12220825 114.47711182 45.12220825 114.47711182 43.40994263 114.50177002 C41.808927 114.50273682 41.808927 114.50273682 40.17556763 114.50372314 C39.193302 114.5067041 38.21103638 114.50968506 37.19900513 114.51275635 C36.40752075 114.38989258 35.61603638 114.26702881 34.80056763 114.14044189 C32.30159122 110.39197729 32.49383044 107.43192779 32.48171997 103.08892822 C32.47167435 102.26919022 32.46162872 101.44945221 32.45127869 100.60487366 C32.42037631 97.89408065 32.40339203 95.18338672 32.38650513 92.47247314 C32.36779915 90.59345137 32.34822616 88.71443804 32.32781982 86.83543396 C32.27643238 81.888753 32.23684207 76.94204479 32.19967651 71.99523926 C32.15967829 66.94786806 32.1085669 61.90061088 32.05838013 56.85333252 C31.96154256 46.94911566 31.87716286 37.04483453 31.80056763 27.14044189 C30.66514526 27.12585938 29.5297229 27.11127686 28.3598938 27.09625244 C24.14961154 27.03830514 19.93986613 26.96107248 15.73001099 26.87799072 C13.90750843 26.84472449 12.08490244 26.81669783 10.26223755 26.79400635 C7.64305513 26.76049108 5.02482215 26.70817838 2.40603638 26.65216064 C1.59031662 26.64577072 0.77459686 26.6393808 -0.06584167 26.63279724 C-5.77806842 26.48413253 -5.77806842 26.48413253 -7.91546631 24.74073792 C-9.58586309 22.65880647 -9.57308145 21.44413018 -9.56271362 18.79669189 C-9.56206909 17.96266846 -9.56142456 17.12864502 -9.5607605 16.26934814 C-9.54464722 15.40180908 -9.52853394 14.53427002 -9.51193237 13.64044189 C-9.51515503 12.77290283 -9.51837769 11.90536377 -9.521698 11.01153564 C-9.46669632 4.54133781 -9.46669632 4.54133781 -7.19943237 1.14044189 C-4.45361059 0.22516797 -2.8281457 0.01132388 0 0 Z " fill="#293239" transform="translate(1113.1994323730469,92.85955810546875)"/>
<path d="M0 0 C0.75539063 -0.020625 1.51078125 -0.04125 2.2890625 -0.0625 C6.86044938 -0.09446774 9.96833211 0.1897595 13.625 3.25 C14.4375 6.4375 14.4375 6.4375 14.625 9.25 C15.21925781 8.85167969 15.81351563 8.45335938 16.42578125 8.04296875 C26.56484039 1.56217045 35.16058442 -0.00347315 47.0625 -0.125 C48.03477539 -0.13901855 49.00705078 -0.15303711 50.00878906 -0.16748047 C51.39469238 -0.1580542 51.39469238 -0.1580542 52.80859375 -0.1484375 C53.63931396 -0.14505371 54.47003418 -0.14166992 55.32592773 -0.13818359 C58.22568746 0.35142222 59.57616547 1.14384326 61.625 3.25 C62.11083984 5.48657227 62.11083984 5.48657227 62.0859375 8.06640625 C62.08207031 8.99517578 62.07820312 9.92394531 62.07421875 10.88085938 C62.03748047 12.33202148 62.03748047 12.33202148 62 13.8125 C61.99871094 14.78380859 61.99742187 15.75511719 61.99609375 16.75585938 C61.90586515 23.96913485 61.90586515 23.96913485 59.625 26.25 C57.4453125 26.50537109 57.4453125 26.50537109 54.75 26.5234375 C53.27080078 26.554375 53.27080078 26.554375 51.76171875 26.5859375 C49.70190198 26.61158902 47.64198059 26.6300476 45.58203125 26.640625 C37.34129498 26.83251795 30.93839002 28.7578191 23.8125 32.875 C17.6581629 39.55685171 15.5308545 47.48774236 15.45141602 56.36962891 C15.43792618 57.58083405 15.42443634 58.79203918 15.41053772 60.03994751 C15.40009933 61.33903046 15.38966095 62.6381134 15.37890625 63.9765625 C15.36339278 65.32987254 15.34718239 66.68317476 15.33030701 68.03646851 C15.25975725 73.76966339 15.19928259 79.5029271 15.14819336 85.23632812 C15.1164139 88.75000147 15.0751543 92.26345947 15.02799797 95.77695847 C15.00420776 97.7638805 14.99123877 99.75092253 14.97840881 101.73794556 C14.96176682 102.94284637 14.94512482 104.14774719 14.92797852 105.38916016 C14.91767105 106.45107574 14.90736359 107.51299133 14.89674377 108.60708618 C14.625 111.25 14.625 111.25 12.625 114.25 C10.31835937 114.62231445 10.31835937 114.62231445 7.46875 114.61328125 C6.44652344 114.61263672 5.42429687 114.61199219 4.37109375 114.61132812 C3.29988281 114.59521484 2.22867188 114.57910156 1.125 114.5625 C-0.48181641 114.56733398 -0.48181641 114.56733398 -2.12109375 114.57226562 C-10.10812996 114.51687004 -10.10812996 114.51687004 -12.375 112.25 C-12.62388897 110.30719757 -12.62388897 110.30719757 -12.62223816 107.8848877 C-12.62643265 106.96788589 -12.63062714 106.05088409 -12.63494873 105.10609436 C-12.62932922 104.0971965 -12.62370972 103.08829865 -12.61791992 102.04882812 C-12.61981827 100.98860947 -12.62171661 99.92839081 -12.62367249 98.83604431 C-12.62738906 95.31770525 -12.61666346 91.79957083 -12.60546875 88.28125 C-12.60427734 85.84509302 -12.60382371 83.40893558 -12.6040802 80.97277832 C-12.60251381 75.86154311 -12.59421224 70.75037779 -12.58081055 65.63916016 C-12.56382052 59.07480231 -12.55999612 52.51052136 -12.56075573 45.9461441 C-12.56048429 40.91399394 -12.5550073 35.88186072 -12.54775429 30.84971619 C-12.54456345 28.42870716 -12.54259925 26.0076962 -12.54186058 23.58668518 C-12.53970142 20.20814722 -12.53096631 16.82969214 -12.52026367 13.45117188 C-12.52071686 12.44227402 -12.52117004 11.43337616 -12.52163696 10.39390564 C-12.51737198 9.47690384 -12.51310699 8.55990204 -12.50871277 7.6151123 C-12.50703692 6.81575005 -12.50536108 6.01638779 -12.50363445 5.19280243 C-12.375 3.25 -12.375 3.25 -11.375 1.25 C-7.56907507 -0.01864164 -3.96629359 0.02679928 0 0 Z " fill="#293239" transform="translate(856.375,92.75)"/>
<path d="M0 0 C0.81146484 -0.01224609 1.62292969 -0.02449219 2.45898438 -0.03710938 C3.24466797 -0.03904297 4.03035156 -0.04097656 4.83984375 -0.04296875 C5.55390381 -0.04707764 6.26796387 -0.05118652 7.00366211 -0.05541992 C9.37673846 0.22457664 10.96238374 1.0822757 13.0625 2.1875 C13.10918014 16.49516136 13.14433637 30.80281094 13.16612434 45.11053276 C13.17657935 51.75356556 13.1907698 58.39654735 13.21337891 65.03955078 C13.23504614 71.4456139 13.24705568 77.85162784 13.25225449 84.25772476 C13.25596127 86.70665385 13.26319925 89.15558012 13.27396011 91.60448837 C13.28839367 95.02398329 13.29048136 98.44327269 13.28955078 101.86279297 C13.30033661 103.394879 13.30033661 103.394879 13.31134033 104.95791626 C13.308591 105.88622253 13.30584167 106.81452881 13.30300903 107.77096558 C13.30485262 108.58029982 13.30669621 109.38963406 13.30859566 110.22349358 C13.0625 112.1875 13.0625 112.1875 11.0625 114.1875 C7.24795714 114.64170837 3.40097486 114.51154776 -0.4375 114.5 C-2.04431641 114.52416992 -2.04431641 114.52416992 -3.68359375 114.54882812 C-4.70582031 114.54947266 -5.72804688 114.55011719 -6.78125 114.55078125 C-7.72162109 114.55376221 -8.66199219 114.55674316 -9.63085938 114.55981445 C-10.77264648 114.3755188 -10.77264648 114.3755188 -11.9375 114.1875 C-14.02754993 111.0524251 -14.1880308 110.35043464 -14.19146729 106.78479004 C-14.19710693 105.88468704 -14.20274658 104.98458405 -14.20855713 104.0572052 C-14.20450867 103.07217514 -14.20046021 102.08714508 -14.19628906 101.07226562 C-14.1997937 100.03301437 -14.20329834 98.99376312 -14.20690918 97.92301941 C-14.21572823 94.47986212 -14.20987664 91.03690947 -14.203125 87.59375 C-14.2044716 85.20625774 -14.20641208 82.81876574 -14.20892334 80.43127441 C-14.21187484 75.42437126 -14.20757606 70.41753941 -14.19824219 65.41064453 C-14.18684771 58.98425878 -14.19340703 52.55804008 -14.20538712 46.13166046 C-14.21260497 41.20069107 -14.21031812 36.26976146 -14.20513153 31.33879089 C-14.20379483 28.96884644 -14.20544346 26.5988984 -14.21009064 24.22895813 C-14.21515457 20.92011919 -14.2074473 17.61155294 -14.19628906 14.30273438 C-14.20033752 13.31770432 -14.20438599 12.33267426 -14.20855713 11.3177948 C-14.20291748 10.4176918 -14.19727783 9.51758881 -14.19146729 8.59020996 C-14.19071323 7.807817 -14.18995918 7.02542404 -14.18918228 6.2193222 C-13.9375 4.1875 -13.9375 4.1875 -11.9375 1.1875 C-7.91560055 -0.15313315 -4.21087478 0.00332875 0 0 Z " fill="#293239" transform="translate(1280.9375,92.8125)"/>
<path d="M0 0 C0.77666016 -0.00386719 1.55332031 -0.00773437 2.35351562 -0.01171875 C3.15595703 -0.00011719 3.95839844 0.01148437 4.78515625 0.0234375 C5.58373047 0.01183594 6.38230469 0.00023438 7.20507812 -0.01171875 C8.37200195 -0.00591797 8.37200195 -0.00591797 9.5625 0 C10.61618774 0.00507568 10.61618774 0.00507568 11.69116211 0.01025391 C14.88714117 0.58555185 16.36846526 1.21745101 18.84765625 3.3984375 C19.6265651 6.78261188 19.49861405 10.14708542 19.44702148 13.60546875 C19.4509642 14.65447357 19.45490692 15.70347839 19.45896912 16.78427124 C19.46569548 20.26030851 19.4364808 23.73504028 19.40625 27.2109375 C19.40200159 29.62084702 19.39967152 32.03076062 19.39918518 34.44067383 C19.39301251 39.49481711 19.37027678 44.54851848 19.3347168 49.60253906 C19.28944388 56.08948705 19.27469139 62.57603425 19.27097988 69.06312561 C19.2665562 74.0404457 19.25126099 79.01768118 19.23210335 83.9949646 C19.2232075 86.38723045 19.21648414 88.77950537 19.21194267 91.17178345 C19.20292432 94.5118129 19.18055401 97.85147564 19.15405273 101.19140625 C19.15305573 102.68297745 19.15305573 102.68297745 19.15203857 104.2046814 C19.14206345 105.11319855 19.13208832 106.0217157 19.12181091 106.95776367 C19.11716041 107.74753098 19.1125099 108.53729828 19.10771847 109.35099792 C18.84765625 111.3984375 18.84765625 111.3984375 16.84765625 114.3984375 C14.54101562 114.77075195 14.54101562 114.77075195 11.69140625 114.76171875 C10.66917969 114.76107422 9.64695312 114.76042969 8.59375 114.75976562 C7.52253906 114.74365234 6.45132813 114.72753906 5.34765625 114.7109375 C3.74083984 114.71577148 3.74083984 114.71577148 2.1015625 114.72070312 C-5.88547371 114.66530754 -5.88547371 114.66530754 -8.15234375 112.3984375 C-8.40961266 110.45842838 -8.40961266 110.45842838 -8.41976929 108.04005432 C-8.42829926 107.12449768 -8.43682922 106.20894104 -8.44561768 105.26564026 C-8.4447113 104.25831345 -8.44380493 103.25098663 -8.44287109 102.21313477 C-8.44958832 101.1545224 -8.45630554 100.09591003 -8.46322632 99.00521851 C-8.48228719 95.49171304 -8.48613451 91.97839775 -8.48828125 88.46484375 C-8.49470324 86.03108134 -8.50143113 83.59731971 -8.50845337 81.16355896 C-8.52044618 76.05653085 -8.5241321 70.9495705 -8.52294922 65.8425293 C-8.52274585 59.28707877 -8.55005831 52.73206089 -8.58449364 46.17671299 C-8.60669154 41.14879853 -8.61078895 36.12098939 -8.60972977 31.09303093 C-8.61209607 28.67562302 -8.62097696 26.25821264 -8.6363945 23.84085274 C-8.65591165 20.46463526 -8.65027237 17.08936635 -8.63818359 13.71313477 C-8.64942261 12.70783218 -8.66066162 11.7025296 -8.67224121 10.66676331 C-8.66385223 9.74838684 -8.65546326 8.83001038 -8.64682007 7.88380432 C-8.6479096 7.08536386 -8.64899914 6.28692339 -8.65012169 5.46428776 C-8.15234375 3.3984375 -8.15234375 3.3984375 -6.24813271 1.64236355 C-3.9360953 0.27008628 -2.66319218 0.01284941 0 0 Z " fill="#293239" transform="translate(595.15234375,92.6015625)"/>
</svg>
