<svg version="1.1" id="Layer_1" xmlns="http://www.w3.org/2000/svg" xmlns:xlink="http://www.w3.org/1999/xlink" x="0px" y="0px"
	 width="100%" viewBox="0 0 500 281" enable-background="new 0 0 500 281" xml:space="preserve">
<path fill="#FFFFFF" opacity="1.000000" stroke="none" 
	d="
M475.000000,282.000000 
	C316.666687,282.000000 158.833389,282.000000 1.000064,282.000000 
	C1.000042,188.333374 1.000042,94.666756 1.000021,1.000101 
	C167.666595,1.000067 334.333191,1.000067 500.999817,1.000034 
	C500.999878,94.666573 500.999878,188.333145 500.999939,281.999878 
	C492.500000,282.000000 484.000000,282.000000 475.000000,282.000000 
M9.839194,147.490875 
	C9.842040,150.820282 9.936777,154.152817 9.823318,157.478256 
	C9.695761,161.216904 11.286240,163.867279 14.496079,165.635574 
	C24.401945,171.092621 34.176220,176.817612 44.312645,181.806564 
	C46.839935,183.050430 51.049774,182.949387 53.609352,181.687622 
	C63.594398,176.765350 73.222839,171.120590 82.993782,165.762543 
	C86.378540,163.906479 87.994217,161.124466 87.970612,157.227676 
	C87.907066,146.740448 87.906387,136.252274 87.972183,125.765060 
	C87.996658,121.863815 86.372734,119.092178 82.988747,117.232277 
	C73.368660,111.944901 63.740101,106.672127 54.163944,101.306038 
	C50.461216,99.231194 46.995853,99.354111 43.320404,101.422073 
	C33.898472,106.723251 24.414150,111.914383 14.922908,117.091095 
	C11.340240,119.045158 9.703307,121.884415 9.799863,126.018951 
	C9.959171,132.840576 9.840761,139.668686 9.839194,147.490875 
M117.979355,136.515137 
	C117.979355,144.262024 117.979355,152.008911 117.979355,159.607101 
	C126.767776,160.871323 126.767494,160.871323 126.770935,153.333130 
	C126.772835,149.168854 126.650749,144.999893 126.806282,140.841339 
	C127.071640,133.746490 130.218231,130.498489 136.349594,130.716385 
	C141.646210,130.904617 143.759003,133.747314 143.803528,140.888412 
	C143.842712,147.171280 143.811722,153.454605 143.811722,159.633057 
	C152.594421,160.941116 152.570084,160.941010 152.606812,153.038162 
	C152.630035,148.044846 152.420609,143.021271 152.897812,138.067352 
	C153.392502,132.931854 157.017807,130.406815 162.372543,130.696182 
	C166.965637,130.944382 169.075836,133.229996 169.284561,138.683487 
	C169.469208,143.507324 169.362320,148.342712 169.365540,153.173004 
	C169.370789,161.050171 169.540604,161.186905 177.907028,159.521042 
	C177.907028,151.300751 178.340225,142.987762 177.774536,134.743317 
	C177.292969,127.724724 172.329727,122.837914 165.274307,122.826439 
	C159.912964,122.817711 154.548508,124.723999 147.957657,126.019554 
	C142.680939,121.298271 135.359787,121.129295 129.023636,124.246132 
	C124.710510,123.547684 121.627792,123.048485 117.979103,122.457626 
	C117.979103,127.565918 117.979103,131.544266 117.979355,136.515137 
M331.036896,158.609909 
	C338.679443,161.700943 346.047852,161.496933 352.664124,156.207901 
	C359.006744,151.137665 361.064423,141.854080 357.959015,133.941360 
	C355.035828,126.492882 347.367157,121.914467 338.754517,122.475700 
	C330.004547,123.045898 323.397614,128.342239 321.362549,136.417725 
	C319.149475,145.199600 322.439697,153.144440 331.036896,158.609909 
M488.260590,126.781570 
	C489.132019,125.734009 490.003448,124.686447 491.117065,123.347740 
	C484.919678,122.005936 480.203247,122.598534 476.153931,127.343300 
	C472.926697,131.124786 468.805145,134.143005 463.902313,138.562012 
	C463.902313,132.331253 463.902313,127.793388 463.902313,123.378952 
	C455.161499,121.982880 455.122833,122.014709 455.123199,129.996429 
	C455.123596,137.822342 455.133850,145.648270 455.121704,153.474167 
	C455.110107,160.935638 455.871368,161.471512 463.962646,159.276932 
	C463.748169,153.802505 462.996735,147.849228 470.299072,145.040619 
	C473.053253,148.449417 475.974945,152.027039 478.854279,155.638397 
	C482.932800,160.753845 485.174164,161.399078 492.427917,159.176208 
	C487.098358,152.264008 481.867645,145.479965 476.317810,138.282059 
	C480.348541,134.408295 484.055359,130.845871 488.260590,126.781570 
M249.879059,149.653015 
	C251.337173,151.473846 253.099854,153.129242 254.195847,155.146805 
	C257.381104,161.010254 262.286285,160.819061 268.476471,159.530350 
	C262.908936,152.299683 257.685425,145.515778 251.816437,137.893616 
	C254.528839,135.562363 256.983002,133.322357 259.577637,131.259018 
	C262.287628,129.103928 265.132874,127.118874 267.918976,125.059479 
	C267.353699,124.425751 266.788391,123.792023 266.223083,123.158295 
	C261.318390,122.379822 256.759125,122.077087 252.797653,126.556030 
	C249.259567,130.556244 244.974365,133.895660 239.860123,138.590317 
	C239.860123,134.456039 239.865601,132.024933 239.859116,129.593872 
	C239.838852,121.997879 239.118591,121.484711 230.970932,123.705917 
	C230.970932,134.382233 231.115097,145.194656 230.894440,155.999634 
	C230.814865,159.896576 232.723526,160.160843 235.786118,160.256989 
	C239.239914,160.365417 240.437149,158.850235 239.826508,155.795135 
	C238.764740,150.483017 241.438766,147.399475 245.852005,144.899872 
	C247.075577,146.346542 248.244247,147.728302 249.879059,149.653015 
M384.642578,136.535461 
	C384.642578,144.283264 384.642578,152.031067 384.642578,159.892853 
	C387.960968,159.892853 390.401459,159.892853 393.486755,159.892853 
	C393.486755,150.251617 393.486755,140.844849 393.486755,130.851181 
	C398.349579,130.851181 402.577606,130.851181 406.800964,130.851181 
	C406.800964,127.859657 406.800964,125.489555 406.800964,122.805473 
	C395.877808,122.805473 385.397339,122.875183 374.918915,122.759605 
	C372.070465,122.728188 370.625549,123.363861 370.673157,126.601753 
	C370.718109,129.656647 371.383423,131.415558 374.877014,131.020828 
	C376.686920,130.816330 378.565094,131.181900 380.366394,130.942886 
	C384.102570,130.447174 385.093597,132.264633 384.642578,136.535461 
M308.293182,123.090240 
	C303.653839,123.352310 299.014526,123.614372 293.573425,123.921730 
	C291.581329,123.580299 288.539337,123.058914 285.298828,122.503510 
	C285.298828,135.581848 285.298828,147.619507 285.298828,159.589478 
	C293.733093,160.993805 293.877441,160.875671 293.872345,152.990433 
	C293.870209,149.669464 293.871399,146.348480 293.875580,143.027512 
	C293.887604,133.504150 296.276489,131.139404 305.977448,130.987030 
	C306.924774,130.972153 307.869293,130.775406 309.433075,130.589691 
	C309.231750,128.114426 309.049225,125.869812 308.293182,123.090240 
M424.403992,141.500000 
	C424.401428,145.493423 424.398834,149.486847 424.396240,153.480270 
	C424.391418,160.995560 425.135803,161.516479 432.839844,159.378296 
	C432.839844,147.314148 432.839844,135.249985 432.839844,123.238266 
	C424.394836,122.075813 424.396027,122.075813 424.403473,130.018784 
	C424.406769,133.513031 424.404144,137.007263 424.403992,141.500000 
M200.201706,156.936157 
	C201.475006,163.044937 205.628799,159.236969 208.641022,159.946930 
	C208.641022,147.334946 208.641022,135.288559 208.641022,123.306267 
	C200.236313,122.023849 200.232071,122.023842 200.220505,129.577698 
	C200.206985,138.398727 200.201828,147.219757 200.201706,156.936157 
z"/>
<path fill="#2E363D" opacity="1.000000" stroke="none" 
	d="
M9.839298,146.992462 
	C9.840761,139.668686 9.959171,132.840576 9.799863,126.018951 
	C9.703307,121.884415 11.340240,119.045158 14.922908,117.091095 
	C24.414150,111.914383 33.898472,106.723251 43.320404,101.422073 
	C46.995853,99.354111 50.461216,99.231194 54.163944,101.306038 
	C63.740101,106.672127 73.368660,111.944901 82.988747,117.232277 
	C86.372734,119.092178 87.996658,121.863815 87.972183,125.765060 
	C87.906387,136.252274 87.907066,146.740448 87.970612,157.227676 
	C87.994217,161.124466 86.378540,163.906479 82.993782,165.762543 
	C73.222839,171.120590 63.594398,176.765350 53.609352,181.687622 
	C51.049774,182.949387 46.839935,183.050430 44.312645,181.806564 
	C34.176220,176.817612 24.401945,171.092621 14.496079,165.635574 
	C11.286240,163.867279 9.695761,161.216904 9.823318,157.478256 
	C9.936777,154.152817 9.842040,150.820282 9.839298,146.992462 
M50.006920,115.550652 
	C47.067696,116.563995 44.128471,117.577347 39.808357,119.066772 
	C46.996323,123.170975 52.640751,126.393845 58.510601,129.745438 
	C52.668575,135.012375 47.336979,136.495193 41.165054,131.660294 
	C38.452385,129.535263 35.268559,127.533836 31.996487,126.769005 
	C29.821379,126.260590 26.239447,127.301163 24.832069,128.959473 
	C22.326715,131.911545 26.161497,132.616333 27.881121,133.655136 
	C31.721121,135.974838 35.601990,138.292480 39.683022,140.129242 
	C43.808140,141.985840 45.201984,144.800232 44.873455,149.190948 
	C44.539150,153.658875 44.964497,158.178879 44.770649,162.663696 
	C44.635403,165.792755 45.959339,167.637909 48.920025,167.587158 
	C51.825813,167.537323 53.174732,165.705536 53.062469,162.578171 
	C52.871552,157.259476 52.901474,151.924606 53.092686,146.605667 
	C53.146877,145.098206 53.641357,142.999283 54.698307,142.250290 
	C57.737404,140.096680 61.167362,138.494659 65.399170,136.145538 
	C65.399170,144.187500 65.399170,151.056427 65.399170,158.058167 
	C72.755592,156.193878 73.686089,155.079315 73.694786,148.652954 
	C73.701775,143.493683 73.507469,138.325104 73.761551,133.178375 
	C73.934380,129.677521 72.540703,127.638924 69.534843,126.078636 
	C63.190094,122.785179 56.962711,119.265617 50.006920,115.550652 
M32.186214,153.303223 
	C32.184563,150.824036 32.177658,148.344818 32.182297,145.865646 
	C32.193882,139.673981 30.889450,138.219009 24.030598,137.161911 
	C24.030598,140.989044 24.407654,144.807770 23.944773,148.521820 
	C23.196623,154.524796 26.613293,156.696411 31.839510,158.325882 
	C31.972902,156.704956 32.074692,155.468079 32.186214,153.303223 
z"/>
<path fill="#343C43" opacity="1.000000" stroke="none" 
	d="
M117.979233,136.018875 
	C117.979103,131.544266 117.979103,127.565918 117.979103,122.457626 
	C121.627792,123.048485 124.710510,123.547684 129.023636,124.246132 
	C135.359787,121.129295 142.680939,121.298271 147.957657,126.019554 
	C154.548508,124.723999 159.912964,122.817711 165.274307,122.826439 
	C172.329727,122.837914 177.292969,127.724724 177.774536,134.743317 
	C178.340225,142.987762 177.907028,151.300751 177.907028,159.521042 
	C169.540604,161.186905 169.370789,161.050171 169.365540,153.173004 
	C169.362320,148.342712 169.469208,143.507324 169.284561,138.683487 
	C169.075836,133.229996 166.965637,130.944382 162.372543,130.696182 
	C157.017807,130.406815 153.392502,132.931854 152.897812,138.067352 
	C152.420609,143.021271 152.630035,148.044846 152.606812,153.038162 
	C152.570084,160.941010 152.594421,160.941116 143.811722,159.633057 
	C143.811722,153.454605 143.842712,147.171280 143.803528,140.888412 
	C143.759003,133.747314 141.646210,130.904617 136.349594,130.716385 
	C130.218231,130.498489 127.071640,133.746490 126.806282,140.841339 
	C126.650749,144.999893 126.772835,149.168854 126.770935,153.333130 
	C126.767494,160.871323 126.767776,160.871323 117.979355,159.607101 
	C117.979355,152.008911 117.979355,144.262024 117.979233,136.018875 
z"/>
<path fill="#323A40" opacity="1.000000" stroke="none" 
	d="
M330.714539,158.415665 
	C322.439697,153.144440 319.149475,145.199600 321.362549,136.417725 
	C323.397614,128.342239 330.004547,123.045898 338.754517,122.475700 
	C347.367157,121.914467 355.035828,126.492882 357.959015,133.941360 
	C361.064423,141.854080 359.006744,151.137665 352.664124,156.207901 
	C346.047852,161.496933 338.679443,161.700943 330.714539,158.415665 
M344.157104,151.847733 
	C349.541199,149.382858 350.855682,144.873184 350.288757,139.482193 
	C349.850403,135.314026 347.756012,132.262238 343.664459,131.036713 
	C339.196014,129.698303 334.977417,130.317001 331.981842,134.203110 
	C328.849609,138.266449 328.817932,142.874954 331.035583,147.335022 
	C333.239624,151.767715 337.186523,153.115433 344.157104,151.847733 
z"/>
<path fill="#323A41" opacity="1.000000" stroke="none" 
	d="
M488.011353,127.032501 
	C484.055359,130.845871 480.348541,134.408295 476.317810,138.282059 
	C481.867645,145.479965 487.098358,152.264008 492.427917,159.176208 
	C485.174164,161.399078 482.932800,160.753845 478.854279,155.638397 
	C475.974945,152.027039 473.053253,148.449417 470.299072,145.040619 
	C462.996735,147.849228 463.748169,153.802505 463.962646,159.276932 
	C455.871368,161.471512 455.110107,160.935638 455.121704,153.474167 
	C455.133850,145.648270 455.123596,137.822342 455.123199,129.996429 
	C455.122833,122.014709 455.161499,121.982880 463.902313,123.378952 
	C463.902313,127.793388 463.902313,132.331253 463.902313,138.562012 
	C468.805145,134.143005 472.926697,131.124786 476.153931,127.343300 
	C480.203247,122.598534 484.919678,122.005936 491.117065,123.347740 
	C490.003448,124.686447 489.132019,125.734009 488.011353,127.032501 
z"/>
<path fill="#313940" opacity="1.000000" stroke="none" 
	d="
M249.645996,149.381546 
	C248.244247,147.728302 247.075577,146.346542 245.852005,144.899872 
	C241.438766,147.399475 238.764740,150.483017 239.826508,155.795135 
	C240.437149,158.850235 239.239914,160.365417 235.786118,160.256989 
	C232.723526,160.160843 230.814865,159.896576 230.894440,155.999634 
	C231.115097,145.194656 230.970932,134.382233 230.970932,123.705917 
	C239.118591,121.484711 239.838852,121.997879 239.859116,129.593872 
	C239.865601,132.024933 239.860123,134.456039 239.860123,138.590317 
	C244.974365,133.895660 249.259567,130.556244 252.797653,126.556030 
	C256.759125,122.077087 261.318390,122.379822 266.223083,123.158295 
	C266.788391,123.792023 267.353699,124.425751 267.918976,125.059479 
	C265.132874,127.118874 262.287628,129.103928 259.577637,131.259018 
	C256.983002,133.322357 254.528839,135.562363 251.816437,137.893616 
	C257.685425,145.515778 262.908936,152.299683 268.476471,159.530350 
	C262.286285,160.819061 257.381104,161.010254 254.195847,155.146805 
	C253.099854,153.129242 251.337173,151.473846 249.645996,149.381546 
z"/>
<path fill="#2D353B" opacity="1.000000" stroke="none" 
	d="
M384.643036,136.037888 
	C385.093597,132.264633 384.102570,130.447174 380.366394,130.942886 
	C378.565094,131.181900 376.686920,130.816330 374.877014,131.020828 
	C371.383423,131.415558 370.718109,129.656647 370.673157,126.601753 
	C370.625549,123.363861 372.070465,122.728188 374.918915,122.759605 
	C385.397339,122.875183 395.877808,122.805473 406.800964,122.805473 
	C406.800964,125.489555 406.800964,127.859657 406.800964,130.851181 
	C402.577606,130.851181 398.349579,130.851181 393.486755,130.851181 
	C393.486755,140.844849 393.486755,150.251617 393.486755,159.892853 
	C390.401459,159.892853 387.960968,159.892853 384.642578,159.892853 
	C384.642578,152.031067 384.642578,144.283264 384.643036,136.037888 
z"/>
<path fill="#313940" opacity="1.000000" stroke="none" 
	d="
M308.579926,123.357719 
	C309.049225,125.869812 309.231750,128.114426 309.433075,130.589691 
	C307.869293,130.775406 306.924774,130.972153 305.977448,130.987030 
	C296.276489,131.139404 293.887604,133.504150 293.875580,143.027512 
	C293.871399,146.348480 293.870209,149.669464 293.872345,152.990433 
	C293.877441,160.875671 293.733093,160.993805 285.298828,159.589478 
	C285.298828,147.619507 285.298828,135.581848 285.298828,122.503510 
	C288.539337,123.058914 291.581329,123.580299 293.573425,123.921730 
	C299.014526,123.614372 303.653839,123.352310 308.579926,123.357719 
z"/>
<path fill="#373E44" opacity="1.000000" stroke="none" 
	d="
M424.404114,141.000763 
	C424.404144,137.007263 424.406769,133.513031 424.403473,130.018784 
	C424.396027,122.075813 424.394836,122.075813 432.839844,123.238266 
	C432.839844,135.249985 432.839844,147.314148 432.834351,159.379883 
	C425.135803,161.516479 424.391418,160.995560 424.396240,153.480270 
	C424.398834,149.486847 424.401428,145.493423 424.404114,141.000763 
z"/>
<path fill="#363D44" opacity="1.000000" stroke="none" 
	d="
M200.197372,156.488464 
	C200.201828,147.219757 200.206985,138.398727 200.220505,129.577698 
	C200.232071,122.023842 200.236313,122.023849 208.641022,123.306267 
	C208.641022,135.288559 208.641022,147.334946 208.641022,159.946930 
	C205.628799,159.236969 201.475006,163.044937 200.197372,156.488464 
z"/>
<path fill="#F5F6F6" opacity="1.000000" stroke="none" 
	d="
M50.347046,115.694733 
	C56.962711,119.265617 63.190094,122.785179 69.534843,126.078636 
	C72.540703,127.638924 73.934380,129.677521 73.761551,133.178375 
	C73.507469,138.325104 73.701775,143.493683 73.694786,148.652954 
	C73.686089,155.079315 72.755592,156.193878 65.399170,158.058167 
	C65.399170,151.056427 65.399170,144.187500 65.399170,136.145538 
	C61.167362,138.494659 57.737404,140.096680 54.698307,142.250290 
	C53.641357,142.999283 53.146877,145.098206 53.092686,146.605667 
	C52.901474,151.924606 52.871552,157.259476 53.062469,162.578171 
	C53.174732,165.705536 51.825813,167.537323 48.920025,167.587158 
	C45.959339,167.637909 44.635403,165.792755 44.770649,162.663696 
	C44.964497,158.178879 44.539150,153.658875 44.873455,149.190948 
	C45.201984,144.800232 43.808140,141.985840 39.683022,140.129242 
	C35.601990,138.292480 31.721121,135.974838 27.881121,133.655136 
	C26.161497,132.616333 22.326715,131.911545 24.832069,128.959473 
	C26.239447,127.301163 29.821379,126.260590 31.996487,126.769005 
	C35.268559,127.533836 38.452385,129.535263 41.165054,131.660294 
	C47.336979,136.495193 52.668575,135.012375 58.510601,129.745438 
	C52.640751,126.393845 46.996323,123.170975 39.808357,119.066772 
	C44.128471,117.577347 47.067696,116.563995 50.347046,115.694733 
z"/>
<path fill="#F7F7F7" opacity="1.000000" stroke="none" 
	d="
M32.181343,153.767212 
	C32.074692,155.468079 31.972902,156.704956 31.839510,158.325882 
	C26.613293,156.696411 23.196623,154.524796 23.944773,148.521820 
	C24.407654,144.807770 24.030598,140.989044 24.030598,137.161911 
	C30.889450,138.219009 32.193882,139.673981 32.182297,145.865646 
	C32.177658,148.344818 32.184563,150.824036 32.181343,153.767212 
z"/>
<path fill="#F9F9F9" opacity="1.000000" stroke="none" 
	d="
M343.794006,151.951294 
	C337.186523,153.115433 333.239624,151.767715 331.035583,147.335022 
	C328.817932,142.874954 328.849609,138.266449 331.981842,134.203110 
	C334.977417,130.317001 339.196014,129.698303 343.664459,131.036713 
	C347.756012,132.262238 349.850403,135.314026 350.288757,139.482193 
	C350.855682,144.873184 349.541199,149.382858 343.794006,151.951294 
z"/>
</svg>