<svg version="1.1" id="Layer_1" xmlns="http://www.w3.org/2000/svg" xmlns:xlink="http://www.w3.org/1999/xlink" x="0px" y="0px"
	 width="100%" viewBox="0 0 588 254" enable-background="new 0 0 588 254" xml:space="preserve">
<path fill="#000000" opacity="1.000000" stroke="none" 
	d="
M440.000000,255.000000 
	C293.333344,255.000000 147.166702,255.000000 1.000039,255.000000 
	C1.000026,170.333359 1.000026,85.666725 1.000013,1.000062 
	C196.999939,1.000041 392.999878,1.000041 588.999878,1.000021 
	C588.999878,85.666603 588.999878,170.333206 588.999939,254.999908 
	C539.500000,255.000000 490.000000,255.000000 440.000000,255.000000 
M261.993347,62.095894 
	C261.993896,52.108002 262.039398,42.119694 261.947205,32.132660 
	C261.933136,30.612392 261.280914,29.098017 260.366760,27.070581 
	C251.818527,26.790230 252.520370,26.493555 251.454727,33.956848 
	C250.134842,43.200825 251.383514,52.823910 251.663254,62.279053 
	C251.817596,67.495674 252.620331,72.714561 252.464584,77.912468 
	C252.326813,82.511093 251.266525,87.082085 250.631119,91.541718 
	C260.263275,94.214104 262.595551,92.786674 261.816345,83.727600 
	C261.217682,76.767181 259.652649,69.941818 261.993347,62.095894 
M98.153412,137.406067 
	C98.102707,159.104233 98.036926,180.802399 98.061981,202.500473 
	C98.062889,203.285797 98.957443,204.070084 99.832161,205.060410 
	C99.832161,205.060410 100.278786,205.071503 100.278786,205.071503 
	C100.278786,205.071503 100.700615,204.924347 101.188644,205.698166 
	C111.891075,205.796265 122.593452,205.913727 133.296082,205.945938 
	C133.962509,205.947952 134.630920,205.280960 135.382538,205.032516 
	C135.382538,205.032516 135.491058,204.949982 136.506134,205.000427 
	C141.173431,204.983475 145.840729,204.966522 150.616760,205.031860 
	C150.616760,205.031860 150.700623,204.924347 151.188660,205.698166 
	C151.838882,205.798370 152.489059,205.986084 153.139313,205.986282 
	C199.019424,206.000381 244.899536,206.007507 290.779572,205.954941 
	C291.952942,205.953598 293.125488,205.283447 294.382629,205.032578 
	C294.382629,205.032578 294.491211,204.949966 295.511444,205.000427 
	C332.510223,204.983444 369.509003,204.966461 406.616638,205.032181 
	C406.616638,205.032181 406.700897,204.924545 407.188843,205.698395 
	C407.673187,205.795959 408.157532,205.978729 408.641907,205.978943 
	C447.399078,205.995087 486.156281,206.006912 524.913391,205.953018 
	C526.105347,205.951355 527.296387,205.255997 528.488831,204.933365 
	C528.488831,204.933365 528.452209,204.900360 529.412170,204.914551 
	C529.607178,204.306808 529.971741,203.699310 529.972595,203.091293 
	C530.002686,181.831726 530.009827,160.572113 529.950012,139.312683 
	C529.947998,138.594543 529.223083,137.878433 527.934082,137.010803 
	C386.450562,137.007751 244.967026,137.004227 103.483490,137.008453 
	C101.986740,137.008484 100.489983,137.110382 98.153412,137.406067 
M316.634186,43.340305 
	C311.718872,43.406559 310.317352,46.899990 310.043396,50.786179 
	C309.704559,55.592247 310.108215,60.446308 309.941620,65.271019 
	C309.875336,67.190109 309.141052,69.086136 308.710876,70.992668 
	C308.250336,71.013588 307.789764,71.034500 307.329224,71.055420 
	C303.910645,64.067703 300.941742,56.810215 296.954315,50.163757 
	C292.443085,42.644161 287.200104,35.531895 281.827850,28.588718 
	C280.819153,27.285101 277.518677,26.917818 275.632660,27.430740 
	C274.420074,27.760509 273.180145,30.474199 273.142151,32.146397 
	C273.049072,36.242039 273.957581,40.357059 273.908783,44.457684 
	C273.737030,58.891842 273.293518,73.322563 273.046570,87.756187 
	C272.994690,90.787781 274.617706,93.088356 277.764740,92.816719 
	C280.658569,92.566925 283.401306,91.703979 283.165466,87.400055 
	C282.781250,80.388634 282.857544,73.336182 283.082733,66.312050 
	C283.270081,60.469128 283.950928,54.642029 284.508484,47.604900 
	C286.003510,50.359306 286.999207,52.139469 287.945312,53.945599 
	C293.979980,65.465561 299.872131,77.064438 306.191895,88.425560 
	C307.013611,89.902763 310.094604,90.940132 311.993378,90.758896 
	C313.704529,90.595573 316.195862,88.758148 316.651245,87.173012 
	C317.906555,82.803741 318.962067,78.163361 318.854218,73.659973 
	C318.618225,63.807335 317.613861,53.973103 316.634186,43.340305 
M328.982056,53.814049 
	C328.989838,59.306286 329.169403,64.804688 328.972534,70.289574 
	C328.424408,85.556999 341.461884,96.087418 356.332794,92.051788 
	C363.414520,90.129974 369.835754,86.728561 371.709900,79.103737 
	C373.225372,72.938286 373.398621,66.425529 373.966888,60.048977 
	C374.696564,51.860802 375.438263,43.661888 375.713501,35.452141 
	C375.797424,32.949593 374.968903,29.860182 373.391144,28.065723 
	C372.436615,26.980112 369.240021,27.865810 366.683136,27.865810 
	C366.078918,41.741302 365.600372,54.521610 364.939423,67.292480 
	C364.484283,76.086441 360.595520,81.437592 352.434509,83.093582 
	C345.689606,84.462219 341.325409,82.895561 340.049042,76.613319 
	C338.395630,68.475288 337.795715,60.105068 337.046082,51.807358 
	C336.457092,45.287834 336.329041,38.726673 336.001648,32.290852 
	C332.771606,31.878468 331.080078,31.656612 329.667908,35.074238 
	C327.165009,41.131634 327.755188,46.886238 328.982056,53.814049 
M389.989624,55.525517 
	C394.362671,57.665733 398.594513,60.194580 403.144501,61.847828 
	C408.836304,63.915966 413.666077,66.608566 415.293549,72.865005 
	C415.769012,74.692795 416.279175,77.130257 415.473572,78.551468 
	C413.421570,82.171501 405.304291,83.856651 401.151672,82.035248 
	C395.404633,79.514519 389.666931,76.972588 382.478333,73.801468 
	C382.478333,77.644188 381.341949,81.295837 382.669983,82.875252 
	C389.332855,90.799149 406.102661,93.808578 415.324768,89.389709 
	C423.416626,85.512398 426.163361,79.799141 424.098724,71.139297 
	C421.904114,61.934326 416.013916,56.343376 407.148712,53.472664 
	C403.686829,52.351650 400.383514,50.821697 398.152771,54.623112 
	C396.866241,51.930786 395.390778,49.503284 394.532806,46.874260 
	C393.542786,43.840832 393.217529,40.612381 396.741486,38.705486 
	C402.197784,35.752964 407.688354,34.735329 413.572144,37.903095 
	C414.887695,38.611378 417.398682,38.412685 418.633850,37.569221 
	C419.758240,36.801418 420.816254,33.996056 420.267273,33.147503 
	C419.311127,31.669750 417.155487,30.880970 415.388062,30.046021 
	C414.219849,29.494154 412.829163,29.435209 411.577698,29.032503 
	C409.638306,28.408436 407.570374,26.825890 405.843140,27.154383 
	C400.604370,28.150700 395.148285,29.180326 390.488464,31.579260 
	C387.918091,32.902512 385.980682,36.786903 385.160889,39.887619 
	C383.683838,45.474174 385.475159,50.688980 389.989624,55.525517 
M210.004974,65.771996 
	C210.197571,71.784340 210.810913,77.820335 210.474762,83.802971 
	C210.067596,91.049789 211.198318,92.960403 218.491745,92.930908 
	C225.090134,92.904221 231.694534,92.452805 238.280945,91.976486 
	C243.563324,91.594460 245.216293,89.104752 244.358383,83.007607 
	C237.772095,83.007607 231.130417,83.078285 224.492615,82.948914 
	C223.139328,82.922531 220.598709,81.896416 220.629272,81.748085 
	C221.681351,76.641167 216.209045,72.179413 219.440826,66.664360 
	C220.554169,64.764412 219.497055,61.580486 219.394836,58.984539 
	C219.325119,57.214500 219.118134,55.446793 219.122070,53.678375 
	C219.123718,52.931915 219.922333,51.763962 219.657684,51.505558 
	C216.964691,48.876137 218.390335,46.670040 219.744522,43.998863 
	C220.420303,42.665821 219.429794,40.529369 219.326752,38.748585 
	C219.222977,36.955448 219.416977,35.139236 219.235046,33.358208 
	C219.072754,31.769218 219.060211,29.714251 218.095428,28.778988 
	C217.035645,27.751606 214.788513,27.131397 213.381409,27.515591 
	C212.041809,27.881351 210.173233,29.761034 210.160034,30.992496 
	C210.045044,41.723564 209.120163,52.586567 213.603195,62.867229 
	C212.456573,63.641514 211.388229,64.362930 210.004974,65.771996 
z"/>
<path fill="#02A983" opacity="1.000000" stroke="none" 
	d="
M100.700615,204.924347 
	C100.700615,204.924347 100.278786,205.071503 100.278786,205.071503 
	C100.278786,205.071503 99.832161,205.060410 99.510460,204.512543 
	C99.123589,181.698013 99.058411,159.431381 98.993240,137.164734 
	C100.489983,137.110382 101.986740,137.008484 103.483490,137.008453 
	C244.967026,137.004227 386.450562,137.007751 528.380249,137.542786 
	C528.825500,148.718735 528.872559,159.362976 528.811035,170.006592 
	C528.743774,181.638153 528.576111,193.269135 528.452271,204.900360 
	C528.452209,204.900360 528.488831,204.933365 527.993530,204.801666 
	C488.220062,204.651169 448.941864,204.630096 409.663635,204.626663 
	C408.676056,204.626572 407.688477,204.820892 406.700897,204.924545 
	C406.700897,204.924545 406.616638,205.032181 406.201904,204.700897 
	C404.803955,204.244003 403.820801,204.009216 402.837494,204.008621 
	C368.134644,203.987564 333.431732,203.977142 298.728973,204.027084 
	C297.315948,204.029114 295.903778,204.628754 294.491211,204.949966 
	C294.491211,204.949966 294.382629,205.032578 293.864807,204.855164 
	C246.784973,204.656357 200.222916,204.633041 153.660873,204.626602 
	C152.674133,204.626465 151.687378,204.820755 150.700623,204.924347 
	C150.700623,204.924347 150.616760,205.031860 150.205597,204.701431 
	C145.026627,204.563995 140.258850,204.756989 135.491058,204.949982 
	C135.491058,204.949982 135.382538,205.032516 134.864761,204.855133 
	C123.131531,204.759949 111.916069,204.842148 100.700615,204.924347 
M481.398315,165.972931 
	C481.008636,164.581543 480.618958,163.190155 479.985138,160.927094 
	C483.489685,160.369949 486.741608,159.852951 491.264221,159.133957 
	C484.170013,155.816544 479.148468,156.260574 477.543976,159.800339 
	C475.852783,163.531540 477.571869,166.142761 481.659363,168.166382 
	C482.582123,168.535507 483.809296,168.651917 484.367218,169.323929 
	C485.724121,170.958267 486.770264,172.850586 487.941589,174.639008 
	C485.880524,175.032074 483.829987,175.654373 481.755219,175.749817 
	C479.906342,175.834854 478.030670,175.337051 476.166809,175.096497 
	C477.762299,176.431702 479.323822,177.811279 480.973969,179.075180 
	C481.471405,179.456177 482.326660,179.840759 482.826965,179.668594 
	C485.488800,178.752594 488.863373,178.303909 490.443451,176.405334 
	C491.518036,175.114136 490.689331,171.348312 489.561401,169.332870 
	C488.040466,166.615067 485.414856,164.512634 481.398315,165.972931 
M263.398529,178.720123 
	C265.972931,181.426010 266.767883,179.804535 266.845428,177.188965 
	C266.960663,173.304001 266.875305,169.413086 266.875305,165.524719 
	C270.141937,169.343872 272.195526,173.400131 274.530212,177.287567 
	C275.095154,178.228256 276.541626,178.923309 277.678223,179.093521 
	C278.116364,179.159119 279.289398,177.467056 279.324036,176.545609 
	C279.497070,171.940414 279.403198,167.325180 279.403198,162.713486 
	C278.814911,162.668411 278.226654,162.623352 277.638367,162.578278 
	C277.085083,165.362778 276.531799,168.147278 275.793152,171.864792 
	C272.099670,165.780075 270.590637,159.320328 263.216339,155.050964 
	C263.216339,163.541580 263.216339,170.696167 263.398529,178.720123 
M396.816650,171.054443 
	C395.492798,163.063141 399.961487,158.810989 407.572937,160.675995 
	C408.564514,160.918961 409.766022,160.305176 410.870270,160.088226 
	C410.109894,159.181961 409.531036,157.886963 408.559357,157.433121 
	C402.674713,154.684753 395.732727,158.096283 393.394775,164.727676 
	C391.816772,169.203552 393.428345,174.868103 397.127686,177.848541 
	C400.499847,180.565369 407.259003,181.336441 410.048584,178.090958 
	C411.991180,175.830872 411.808289,171.743835 412.614288,168.304825 
	C410.118927,167.884308 408.952576,167.434814 407.849823,167.557358 
	C405.876099,167.776672 403.940674,168.340561 401.989227,168.760406 
	C403.708740,169.528412 405.428741,170.295364 407.147308,171.065475 
	C407.442200,171.197647 407.731018,171.343430 409.484406,172.182114 
	C407.686371,173.805344 406.510315,175.662781 404.917664,176.145401 
	C401.173859,177.279907 398.519257,175.424454 396.816650,171.054443 
M246.687408,164.352402 
	C246.777817,163.191040 247.099701,161.987610 246.898315,160.879272 
	C246.662354,159.580536 245.970963,158.364563 245.477127,157.112686 
	C244.746780,158.196854 243.715744,159.191132 243.358307,160.386765 
	C242.853516,162.075363 242.846786,163.912842 242.566727,166.174484 
	C239.266907,166.016846 236.254532,165.872940 233.558731,165.744156 
	C233.040329,162.052902 232.630920,159.137726 232.221512,156.222549 
	C231.289139,156.282120 230.356766,156.341690 229.424393,156.401260 
	C229.399811,163.870773 229.354095,171.340469 229.413467,178.809311 
	C229.416412,179.179642 230.589844,179.954773 230.779907,179.836563 
	C231.533951,179.367645 232.571304,178.684418 232.675629,177.961166 
	C233.048355,175.376846 233.082535,172.743713 233.269592,169.729797 
	C236.284790,169.883331 239.015457,170.022385 242.161728,170.182602 
	C242.161728,172.171768 241.934753,173.840561 242.225769,175.413528 
	C242.514969,176.976608 243.325043,178.443329 243.906693,179.952316 
	C244.597809,178.367050 245.662094,176.835815 245.901154,175.185074 
	C246.375488,171.909714 246.394806,168.568466 246.687408,164.352402 
M376.446350,165.564499 
	C378.844513,162.484268 377.258118,160.294937 374.661652,158.621506 
	C370.619965,156.016663 366.463562,155.145691 362.137604,158.272385 
	C357.943024,161.304123 356.724823,165.491302 357.875336,170.162491 
	C359.030121,174.850815 361.557922,179.262466 366.833954,179.685516 
	C369.507355,179.899872 373.014618,178.385880 374.977570,176.462173 
	C377.137207,174.345703 379.048523,171.022629 376.616516,166.783157 
	C375.497955,169.244400 374.868256,171.138596 373.844360,172.788071 
	C370.705078,177.845428 366.096527,177.914200 362.713440,173.067245 
	C359.741547,168.809418 360.260254,163.738205 363.945984,161.016617 
	C367.702454,158.242752 372.248383,159.822174 376.446350,165.564499 
M296.540222,161.326279 
	C293.928406,167.863449 294.771637,172.835571 299.323364,177.198242 
	C302.371094,180.119324 306.349030,181.543213 309.609863,178.838684 
	C312.252045,176.647247 313.688080,172.858276 315.234650,169.577774 
	C315.689972,168.611923 314.103241,166.759766 314.478577,165.665970 
	C315.768402,161.907349 314.354309,159.689514 311.142059,158.010956 
	C305.447998,155.035568 302.436066,155.589020 296.540222,161.326279 
M447.913971,160.911682 
	C447.913971,167.147705 447.913971,173.383743 447.913971,180.184921 
	C452.589783,179.874649 456.039825,179.730728 459.464081,179.353012 
	C460.228180,179.268738 460.901672,178.363083 461.616882,177.835602 
	C460.838898,177.223434 460.104980,176.165604 459.274567,176.083435 
	C456.867828,175.845352 454.422363,175.999115 451.863312,175.999115 
	C451.863312,173.643524 451.863312,171.595963 451.863312,169.272415 
	C453.840118,169.181259 455.489380,169.245300 457.080383,168.971115 
	C457.845520,168.839264 458.500702,168.069061 459.205688,167.587936 
	C458.470428,166.937042 457.801819,165.847961 456.986450,165.723984 
	C455.134247,165.442352 453.209869,165.635239 451.447998,165.635239 
	C450.555054,160.296280 452.258759,158.668274 456.822815,159.720291 
	C458.027893,159.998077 459.499664,159.193222 460.808380,158.762100 
	C460.886780,158.736252 460.814331,157.413086 460.454132,157.031189 
	C458.082825,154.516922 449.272980,156.656357 447.913971,160.911682 
M170.835098,164.459213 
	C170.963699,162.883148 171.092300,161.307068 171.220001,159.741943 
	C172.440308,159.605942 173.095749,159.548126 173.746628,159.457596 
	C176.006073,159.143372 178.263962,158.817810 180.522430,158.496567 
	C178.275299,157.723190 176.079895,156.673767 173.768997,156.240601 
	C170.226837,155.576645 167.355515,156.499542 167.299561,160.848724 
	C167.219299,167.086243 167.279083,173.325546 167.279083,179.311218 
	C176.302383,180.733322 180.314285,179.692368 180.698868,176.066635 
	C177.586746,176.066635 174.506302,176.066635 171.300339,176.066635 
	C171.300339,173.660904 171.300339,171.600952 171.300339,169.342316 
	C172.381882,169.244690 173.181870,169.151123 173.984589,169.105911 
	C174.814667,169.059158 175.734009,169.274582 176.456726,168.983734 
	C177.333496,168.630905 178.045227,167.867966 178.828369,167.282471 
	C177.980606,166.731812 177.195480,165.897797 176.271149,165.693451 
	C174.675751,165.340744 172.993820,165.379303 170.835098,164.459213 
M197.023972,174.389374 
	C202.157974,181.862976 208.787781,182.308182 214.621857,174.331802 
	C212.277924,174.779236 210.859741,174.758209 209.727173,175.316574 
	C204.775803,177.757507 200.257889,176.252747 199.560043,170.917313 
	C199.162933,167.881119 200.329453,163.867584 202.292557,161.584610 
	C203.474915,160.209595 207.539566,161.322311 210.308823,161.297958 
	C211.429291,161.288116 212.549301,161.227203 213.669525,161.189529 
	C213.043442,160.180542 212.611542,158.545975 211.754822,158.280045 
	C209.200638,157.487198 206.304993,156.405426 203.857132,156.923111 
	C196.913437,158.391571 194.014130,165.792145 197.023972,174.389374 
M147.515152,160.062210 
	C148.011688,160.051224 148.563904,160.177795 148.994370,160.003571 
	C150.308075,159.471848 151.574921,158.824326 152.860001,158.221863 
	C151.541489,157.563568 150.255508,156.433014 148.898056,156.339493 
	C145.441208,156.101257 141.937897,156.158066 138.484116,156.455780 
	C137.244873,156.562592 136.094254,157.697464 134.903183,158.363129 
	C135.112152,158.802048 135.321121,159.240967 135.530090,159.679886 
	C137.584183,159.887329 139.638275,160.094757 142.021774,160.335464 
	C142.021774,165.714813 141.903381,170.826752 142.102066,175.926361 
	C142.154037,177.260254 143.191574,178.555740 143.776459,179.868866 
	C144.415970,178.543411 145.487015,177.259201 145.618332,175.885193 
	C146.116394,170.673645 146.310211,165.433014 147.515152,160.062210 
M334.201447,168.692017 
	C334.153992,165.710358 334.227020,162.719284 333.995117,159.752045 
	C333.911591,158.682953 333.095398,157.671112 332.613556,156.633163 
	C332.025024,157.770523 330.974579,158.891327 330.933105,160.048309 
	C330.799377,163.781204 331.543365,167.598862 331.027466,171.253769 
	C329.913727,179.143707 330.655762,180.356445 338.591980,179.960556 
	C340.314423,179.874634 341.984924,178.747971 343.679352,178.100677 
	C333.835022,175.520203 333.835022,175.520203 334.201447,168.692017 
M428.100586,179.637741 
	C430.667694,180.726044 431.415985,179.408661 431.435394,177.119766 
	C431.481750,171.657486 431.576263,166.194992 431.548004,160.733124 
	C431.540283,159.239227 431.166870,157.747223 430.961273,156.254349 
	C430.355499,156.180923 429.749725,156.107483 429.143951,156.034058 
	C428.664307,157.683273 427.808655,159.324310 427.772614,160.983185 
	C427.642609,166.957932 427.789001,172.938705 428.100586,179.637741 
z"/>
<path fill="#05AA84" opacity="1.000000" stroke="none" 
	d="
M316.778778,43.735832 
	C317.613861,53.973103 318.618225,63.807335 318.854218,73.659973 
	C318.962067,78.163361 317.906555,82.803741 316.651245,87.173012 
	C316.195862,88.758148 313.704529,90.595573 311.993378,90.758896 
	C310.094604,90.940132 307.013611,89.902763 306.191895,88.425560 
	C299.872131,77.064438 293.979980,65.465561 287.945312,53.945599 
	C286.999207,52.139469 286.003510,50.359306 284.508484,47.604900 
	C283.950928,54.642029 283.270081,60.469128 283.082733,66.312050 
	C282.857544,73.336182 282.781250,80.388634 283.165466,87.400055 
	C283.401306,91.703979 280.658569,92.566925 277.764740,92.816719 
	C274.617706,93.088356 272.994690,90.787781 273.046570,87.756187 
	C273.293518,73.322563 273.737030,58.891842 273.908783,44.457684 
	C273.957581,40.357059 273.049072,36.242039 273.142151,32.146397 
	C273.180145,30.474199 274.420074,27.760509 275.632660,27.430740 
	C277.518677,26.917818 280.819153,27.285101 281.827850,28.588718 
	C287.200104,35.531895 292.443085,42.644161 296.954315,50.163757 
	C300.941742,56.810215 303.910645,64.067703 307.329224,71.055420 
	C307.789764,71.034500 308.250336,71.013588 308.710876,70.992668 
	C309.141052,69.086136 309.875336,67.190109 309.941620,65.271019 
	C310.108215,60.446308 309.704559,55.592247 310.043396,50.786179 
	C310.317352,46.899990 311.718872,43.406559 316.778778,43.735832 
z"/>
<path fill="#05AA84" opacity="1.000000" stroke="none" 
	d="
M328.939056,53.342316 
	C327.755188,46.886238 327.165009,41.131634 329.667908,35.074238 
	C331.080078,31.656612 332.771606,31.878468 336.001648,32.290852 
	C336.329041,38.726673 336.457092,45.287834 337.046082,51.807358 
	C337.795715,60.105068 338.395630,68.475288 340.049042,76.613319 
	C341.325409,82.895561 345.689606,84.462219 352.434509,83.093582 
	C360.595520,81.437592 364.484283,76.086441 364.939423,67.292480 
	C365.600372,54.521610 366.078918,41.741302 366.683136,27.865810 
	C369.240021,27.865810 372.436615,26.980112 373.391144,28.065723 
	C374.968903,29.860182 375.797424,32.949593 375.713501,35.452141 
	C375.438263,43.661888 374.696564,51.860802 373.966888,60.048977 
	C373.398621,66.425529 373.225372,72.938286 371.709900,79.103737 
	C369.835754,86.728561 363.414520,90.129974 356.332794,92.051788 
	C341.461884,96.087418 328.424408,85.556999 328.972534,70.289574 
	C329.169403,64.804688 328.989838,59.306286 328.939056,53.342316 
z"/>
<path fill="#08AB85" opacity="1.000000" stroke="none" 
	d="
M389.718140,55.271393 
	C385.475159,50.688980 383.683838,45.474174 385.160889,39.887619 
	C385.980682,36.786903 387.918091,32.902512 390.488464,31.579260 
	C395.148285,29.180326 400.604370,28.150700 405.843140,27.154383 
	C407.570374,26.825890 409.638306,28.408436 411.577698,29.032503 
	C412.829163,29.435209 414.219849,29.494154 415.388062,30.046021 
	C417.155487,30.880970 419.311127,31.669750 420.267273,33.147503 
	C420.816254,33.996056 419.758240,36.801418 418.633850,37.569221 
	C417.398682,38.412685 414.887695,38.611378 413.572144,37.903095 
	C407.688354,34.735329 402.197784,35.752964 396.741486,38.705486 
	C393.217529,40.612381 393.542786,43.840832 394.532806,46.874260 
	C395.390778,49.503284 396.866241,51.930786 398.152771,54.623112 
	C400.383514,50.821697 403.686829,52.351650 407.148712,53.472664 
	C416.013916,56.343376 421.904114,61.934326 424.098724,71.139297 
	C426.163361,79.799141 423.416626,85.512398 415.324768,89.389709 
	C406.102661,93.808578 389.332855,90.799149 382.669983,82.875252 
	C381.341949,81.295837 382.478333,77.644188 382.478333,73.801468 
	C389.666931,76.972588 395.404633,79.514519 401.151672,82.035248 
	C405.304291,83.856651 413.421570,82.171501 415.473572,78.551468 
	C416.279175,77.130257 415.769012,74.692795 415.293549,72.865005 
	C413.666077,66.608566 408.836304,63.915966 403.144501,61.847828 
	C398.594513,60.194580 394.362671,57.665733 389.718140,55.271393 
z"/>
<path fill="#08AB85" opacity="1.000000" stroke="none" 
	d="
M210.162445,65.428177 
	C211.388229,64.362930 212.456573,63.641514 213.603195,62.867229 
	C209.120163,52.586567 210.045044,41.723564 210.160034,30.992496 
	C210.173233,29.761034 212.041809,27.881351 213.381409,27.515591 
	C214.788513,27.131397 217.035645,27.751606 218.095428,28.778988 
	C219.060211,29.714251 219.072754,31.769218 219.235046,33.358208 
	C219.416977,35.139236 219.222977,36.955448 219.326752,38.748585 
	C219.429794,40.529369 220.420303,42.665821 219.744522,43.998863 
	C218.390335,46.670040 216.964691,48.876137 219.657684,51.505558 
	C219.922333,51.763962 219.123718,52.931915 219.122070,53.678375 
	C219.118134,55.446793 219.325119,57.214500 219.394836,58.984539 
	C219.497055,61.580486 220.554169,64.764412 219.440826,66.664360 
	C216.209045,72.179413 221.681351,76.641167 220.629272,81.748085 
	C220.598709,81.896416 223.139328,82.922531 224.492615,82.948914 
	C231.130417,83.078285 237.772095,83.007607 244.358383,83.007607 
	C245.216293,89.104752 243.563324,91.594460 238.280945,91.976486 
	C231.694534,92.452805 225.090134,92.904221 218.491745,92.930908 
	C211.198318,92.960403 210.067596,91.049789 210.474762,83.802971 
	C210.810913,77.820335 210.197571,71.784340 210.162445,65.428177 
z"/>
<path fill="#04AA83" opacity="1.000000" stroke="none" 
	d="
M261.842224,63.031616 
	C259.652649,69.941818 261.217682,76.767181 261.816345,83.727600 
	C262.595551,92.786674 260.263275,94.214104 250.631119,91.541718 
	C251.266525,87.082085 252.326813,82.511093 252.464584,77.912468 
	C252.620331,72.714561 251.817596,67.495674 251.663254,62.279053 
	C251.383514,52.823910 250.134842,43.200825 251.454727,33.956848 
	C252.520370,26.493555 251.818527,26.790230 260.634644,27.828762 
	C260.942780,36.345642 260.903870,44.105911 261.057617,51.862366 
	C261.131500,55.589169 261.569244,59.308762 261.842224,63.031616 
z"/>
<path fill="#FFFFFF" opacity="1.000000" stroke="none" 
	d="
M150.944641,205.311249 
	C151.687378,204.820755 152.674133,204.626465 153.660873,204.626602 
	C200.222916,204.633041 246.784973,204.656357 293.822723,204.801483 
	C293.125488,205.283447 291.952942,205.953598 290.779572,205.954941 
	C244.899536,206.007507 199.019424,206.000381 153.139313,205.986282 
	C152.489059,205.986084 151.838882,205.798370 150.944641,205.311249 
z"/>
<path fill="#FFFFFF" opacity="1.000000" stroke="none" 
	d="
M406.944885,205.311462 
	C407.688477,204.820892 408.676056,204.626572 409.663635,204.626663 
	C448.941864,204.630096 488.220062,204.651169 527.993042,204.777008 
	C527.296387,205.255997 526.105347,205.951355 524.913391,205.953018 
	C486.156281,206.006912 447.399078,205.995087 408.641907,205.978943 
	C408.157532,205.978729 407.673187,205.795959 406.944885,205.311462 
z"/>
<path fill="#6BCDB6" opacity="1.000000" stroke="none" 
	d="
M295.001343,204.975189 
	C295.903778,204.628754 297.315948,204.029114 298.728973,204.027084 
	C333.431732,203.977142 368.134644,203.987564 402.837494,204.008621 
	C403.820801,204.009216 404.803955,204.244003 406.147491,204.659531 
	C369.509003,204.966461 332.510223,204.983444 295.001343,204.975189 
z"/>
<path fill="#FFFFFF" opacity="1.000000" stroke="none" 
	d="
M528.932251,204.907455 
	C528.576111,193.269135 528.743774,181.638153 528.811035,170.006592 
	C528.872559,159.362976 528.825500,148.718735 528.830750,137.618073 
	C529.223083,137.878433 529.947998,138.594543 529.950012,139.312683 
	C530.009827,160.572113 530.002686,181.831726 529.972595,203.091293 
	C529.971741,203.699310 529.607178,204.306808 528.932251,204.907455 
z"/>
<path fill="#DDF4EE" opacity="1.000000" stroke="none" 
	d="
M98.573326,137.285400 
	C99.058411,159.431381 99.123589,181.698013 99.312134,204.409760 
	C98.957443,204.070084 98.062889,203.285797 98.061981,202.500473 
	C98.036926,180.802399 98.102707,159.104233 98.573326,137.285400 
z"/>
<path fill="#62CAB2" opacity="1.000000" stroke="none" 
	d="
M261.917786,62.563755 
	C261.569244,59.308762 261.131500,55.589169 261.057617,51.862366 
	C260.903870,44.105911 260.942780,36.345642 260.913208,28.083927 
	C261.280914,29.098017 261.933136,30.612392 261.947205,32.132660 
	C262.039398,42.119694 261.993896,52.108002 261.917786,62.563755 
z"/>
<path fill="#FFFFFF" opacity="1.000000" stroke="none" 
	d="
M100.944626,205.311249 
	C111.916069,204.842148 123.131531,204.759949 134.822693,204.801483 
	C134.630920,205.280960 133.962509,205.947952 133.296082,205.945938 
	C122.593452,205.913727 111.891075,205.796265 100.944626,205.311249 
z"/>
<path fill="#6BCDB6" opacity="1.000000" stroke="none" 
	d="
M135.998596,204.975204 
	C140.258850,204.756989 145.026627,204.563995 150.151215,204.660278 
	C145.840729,204.966522 141.173431,204.983475 135.998596,204.975204 
z"/>
<path fill="#E6F7F3" opacity="1.000000" stroke="none" 
	d="
M263.307434,178.285431 
	C263.216339,170.696167 263.216339,163.541580 263.216339,155.050964 
	C270.590637,159.320328 272.099670,165.780075 275.793152,171.864792 
	C276.531799,168.147278 277.085083,165.362778 277.638367,162.578278 
	C278.226654,162.623352 278.814911,162.668411 279.403198,162.713486 
	C279.403198,167.325180 279.497070,171.940414 279.324036,176.545609 
	C279.289398,177.467056 278.116364,179.159119 277.678223,179.093521 
	C276.541626,178.923309 275.095154,178.228256 274.530212,177.287567 
	C272.195526,173.400131 270.141937,169.343872 266.875305,165.524719 
	C266.875305,169.413086 266.960663,173.304001 266.845428,177.188965 
	C266.767883,179.804535 265.972931,181.426010 263.307434,178.285431 
z"/>
<path fill="#EBF8F5" opacity="1.000000" stroke="none" 
	d="
M396.918274,171.471542 
	C398.519257,175.424454 401.173859,177.279907 404.917664,176.145401 
	C406.510315,175.662781 407.686371,173.805344 409.484406,172.182114 
	C407.731018,171.343430 407.442200,171.197647 407.147308,171.065475 
	C405.428741,170.295364 403.708740,169.528412 401.989227,168.760406 
	C403.940674,168.340561 405.876099,167.776672 407.849823,167.557358 
	C408.952576,167.434814 410.118927,167.884308 412.614288,168.304825 
	C411.808289,171.743835 411.991180,175.830872 410.048584,178.090958 
	C407.259003,181.336441 400.499847,180.565369 397.127686,177.848541 
	C393.428345,174.868103 391.816772,169.203552 393.394775,164.727676 
	C395.732727,158.096283 402.674713,154.684753 408.559357,157.433121 
	C409.531036,157.886963 410.109894,159.181961 410.870270,160.088226 
	C409.766022,160.305176 408.564514,160.918961 407.572937,160.675995 
	C399.961487,158.810989 395.492798,163.063141 396.918274,171.471542 
z"/>
<path fill="#E2F5F1" opacity="1.000000" stroke="none" 
	d="
M246.644806,164.803421 
	C246.394806,168.568466 246.375488,171.909714 245.901154,175.185074 
	C245.662094,176.835815 244.597809,178.367050 243.906708,179.952316 
	C243.325043,178.443329 242.514969,176.976608 242.225769,175.413528 
	C241.934753,173.840561 242.161728,172.171768 242.161728,170.182602 
	C239.015457,170.022385 236.284790,169.883331 233.269592,169.729797 
	C233.082535,172.743713 233.048355,175.376846 232.675629,177.961166 
	C232.571304,178.684418 231.533951,179.367645 230.779907,179.836563 
	C230.589844,179.954773 229.416412,179.179642 229.413467,178.809311 
	C229.354095,171.340469 229.399811,163.870773 229.424393,156.401260 
	C230.356766,156.341690 231.289139,156.282120 232.221512,156.222549 
	C232.630920,159.137726 233.040329,162.052902 233.558731,165.744156 
	C236.254532,165.872940 239.266907,166.016846 242.566727,166.174484 
	C242.846786,163.912842 242.853516,162.075363 243.358307,160.386765 
	C243.715744,159.191132 244.746780,158.196854 245.477112,157.112686 
	C245.970963,158.364563 246.662354,159.580536 246.898315,160.879272 
	C247.099701,161.987610 246.777817,163.191040 246.644806,164.803421 
z"/>
<path fill="#E8F7F4" opacity="1.000000" stroke="none" 
	d="
M376.174896,165.367798 
	C372.248383,159.822174 367.702454,158.242752 363.945984,161.016617 
	C360.260254,163.738205 359.741547,168.809418 362.713440,173.067245 
	C366.096527,177.914200 370.705078,177.845428 373.844360,172.788071 
	C374.868256,171.138596 375.497955,169.244400 376.616516,166.783157 
	C379.048523,171.022629 377.137207,174.345703 374.977570,176.462173 
	C373.014618,178.385880 369.507355,179.899872 366.833954,179.685516 
	C361.557922,179.262466 359.030121,174.850815 357.875336,170.162491 
	C356.724823,165.491302 357.943024,161.304123 362.137604,158.272385 
	C366.463562,155.145691 370.619965,156.016663 374.661652,158.621506 
	C377.258118,160.294937 378.844513,162.484268 376.174896,165.367798 
z"/>
<path fill="#E9F8F4" opacity="1.000000" stroke="none" 
	d="
M296.789429,161.033173 
	C302.436066,155.589020 305.447998,155.035568 311.142059,158.010956 
	C314.354309,159.689514 315.768402,161.907349 314.478577,165.665970 
	C314.103241,166.759766 315.689972,168.611923 315.234650,169.577774 
	C313.688080,172.858276 312.252045,176.647247 309.609863,178.838684 
	C306.349030,181.543213 302.371094,180.119324 299.323364,177.198242 
	C294.771637,172.835571 293.928406,167.863449 296.789429,161.033173 
M313.952881,167.282089 
	C313.424377,166.128433 312.992584,164.917542 312.349701,163.831604 
	C310.224792,160.242126 306.635315,158.428955 303.206726,160.352829 
	C300.837250,161.682419 298.510803,165.326828 298.444000,167.993896 
	C298.345367,171.931396 300.694305,175.888626 305.305450,176.503296 
	C309.552429,177.069397 311.125671,173.494919 312.598724,170.296021 
	C312.939972,169.554947 313.070892,168.716995 313.952881,167.282089 
z"/>
<path fill="#EBF8F5" opacity="1.000000" stroke="none" 
	d="
M447.946411,160.458282 
	C449.272980,156.656357 458.082825,154.516922 460.454132,157.031189 
	C460.814331,157.413086 460.886780,158.736252 460.808380,158.762100 
	C459.499664,159.193222 458.027893,159.998077 456.822815,159.720291 
	C452.258759,158.668274 450.555054,160.296280 451.447998,165.635239 
	C453.209869,165.635239 455.134247,165.442352 456.986450,165.723984 
	C457.801819,165.847961 458.470428,166.937042 459.205688,167.587921 
	C458.500702,168.069061 457.845520,168.839264 457.080383,168.971115 
	C455.489380,169.245300 453.840118,169.181259 451.863312,169.272415 
	C451.863312,171.595963 451.863312,173.643524 451.863312,175.999115 
	C454.422363,175.999115 456.867828,175.845352 459.274567,176.083435 
	C460.104980,176.165604 460.838898,177.223434 461.616882,177.835602 
	C460.901672,178.363083 460.228180,179.268738 459.464081,179.353012 
	C456.039825,179.730728 452.589783,179.874649 447.913971,180.184921 
	C447.913971,173.383743 447.913971,167.147705 447.946411,160.458282 
z"/>
<path fill="#E7F7F3" opacity="1.000000" stroke="none" 
	d="
M171.091644,164.856445 
	C172.993820,165.379303 174.675751,165.340744 176.271149,165.693451 
	C177.195480,165.897797 177.980606,166.731812 178.828369,167.282471 
	C178.045227,167.867966 177.333496,168.630905 176.456726,168.983734 
	C175.734009,169.274582 174.814667,169.059158 173.984589,169.105911 
	C173.181870,169.151123 172.381882,169.244690 171.300339,169.342316 
	C171.300339,171.600952 171.300339,173.660904 171.300339,176.066635 
	C174.506302,176.066635 177.586746,176.066635 180.698868,176.066635 
	C180.314285,179.692368 176.302383,180.733322 167.279083,179.311218 
	C167.279083,173.325546 167.219299,167.086243 167.299561,160.848724 
	C167.355515,156.499542 170.226837,155.576645 173.768997,156.240601 
	C176.079895,156.673767 178.275299,157.723190 180.522430,158.496567 
	C178.263962,158.817810 176.006073,159.143372 173.746628,159.457596 
	C173.095749,159.548126 172.440308,159.605942 171.220001,159.741943 
	C171.092300,161.307068 170.963699,162.883148 171.091644,164.856445 
z"/>
<path fill="#E9F8F4" opacity="1.000000" stroke="none" 
	d="
M196.901581,174.035110 
	C194.014130,165.792145 196.913437,158.391571 203.857132,156.923111 
	C206.304993,156.405426 209.200638,157.487198 211.754822,158.280045 
	C212.611542,158.545975 213.043442,160.180542 213.669525,161.189529 
	C212.549301,161.227203 211.429291,161.288116 210.308823,161.297958 
	C207.539566,161.322311 203.474915,160.209595 202.292557,161.584610 
	C200.329453,163.867584 199.162933,167.881119 199.560043,170.917313 
	C200.257889,176.252747 204.775803,177.757507 209.727173,175.316574 
	C210.859741,174.758209 212.277924,174.779236 214.621857,174.331802 
	C208.787781,182.308182 202.157974,181.862976 196.901581,174.035110 
z"/>
<path fill="#DBF3ED" opacity="1.000000" stroke="none" 
	d="
M147.066483,160.132736 
	C146.310211,165.433014 146.116394,170.673645 145.618332,175.885193 
	C145.487015,177.259201 144.415970,178.543411 143.776459,179.868866 
	C143.191574,178.555740 142.154037,177.260254 142.102066,175.926361 
	C141.903381,170.826752 142.021774,165.714813 142.021774,160.335464 
	C139.638275,160.094757 137.584183,159.887329 135.530090,159.679886 
	C135.321121,159.240967 135.112152,158.802048 134.903183,158.363129 
	C136.094254,157.697464 137.244873,156.562592 138.484116,156.455780 
	C141.937897,156.158066 145.441208,156.101257 148.898056,156.339493 
	C150.255508,156.433014 151.541489,157.563568 152.860001,158.221863 
	C151.574921,158.824326 150.308075,159.471848 148.994370,160.003571 
	C148.563904,160.177795 148.011688,160.051224 147.066483,160.132736 
z"/>
<path fill="#E6F7F3" opacity="1.000000" stroke="none" 
	d="
M334.202667,169.092911 
	C333.835022,175.520203 333.835022,175.520203 343.679352,178.100677 
	C341.984924,178.747971 340.314423,179.874634 338.591980,179.960556 
	C330.655762,180.356445 329.913727,179.143707 331.027466,171.253769 
	C331.543365,167.598862 330.799377,163.781204 330.933105,160.048309 
	C330.974579,158.891327 332.025024,157.770523 332.613556,156.633163 
	C333.095398,157.671112 333.911591,158.682953 333.995117,159.752045 
	C334.227020,162.719284 334.153992,165.710358 334.202667,169.092911 
z"/>
<path fill="#E6F7F3" opacity="1.000000" stroke="none" 
	d="
M481.786743,166.637955 
	C485.414856,164.512634 488.040466,166.615067 489.561401,169.332870 
	C490.689331,171.348312 491.518036,175.114136 490.443451,176.405334 
	C488.863373,178.303909 485.488800,178.752594 482.826965,179.668594 
	C482.326660,179.840759 481.471405,179.456177 480.973969,179.075180 
	C479.323822,177.811279 477.762299,176.431702 476.166809,175.096481 
	C478.030670,175.337051 479.906342,175.834854 481.755219,175.749817 
	C483.829987,175.654373 485.880524,175.032074 487.941589,174.639008 
	C486.770264,172.850586 485.724121,170.958267 484.367218,169.323929 
	C483.809296,168.651917 482.582123,168.535507 481.433044,167.839722 
	C481.400055,167.221359 481.593414,166.929657 481.786743,166.637955 
z"/>
<path fill="#E2F5F1" opacity="1.000000" stroke="none" 
	d="
M427.965759,179.277466 
	C427.789001,172.938705 427.642609,166.957932 427.772614,160.983185 
	C427.808655,159.324310 428.664307,157.683273 429.143951,156.034058 
	C429.749725,156.107483 430.355499,156.180923 430.961273,156.254349 
	C431.166870,157.747223 431.540283,159.239227 431.548004,160.733124 
	C431.576263,166.194992 431.481750,171.657486 431.435394,177.119766 
	C431.415985,179.408661 430.667694,180.726044 427.965759,179.277466 
z"/>
<path fill="#E2F5F1" opacity="1.000000" stroke="none" 
	d="
M481.592529,166.305450 
	C481.593414,166.929657 481.400055,167.221359 481.120728,167.665482 
	C477.571869,166.142761 475.852783,163.531540 477.543976,159.800339 
	C479.148468,156.260574 484.170013,155.816544 491.264221,159.133957 
	C486.741608,159.852951 483.489685,160.369949 479.985138,160.927094 
	C480.618958,163.190155 481.008636,164.581543 481.592529,166.305450 
z"/>
<path fill="#02A983" opacity="1.000000" stroke="none" 
	d="
M313.625732,167.602859 
	C313.070892,168.716995 312.939972,169.554947 312.598724,170.296021 
	C311.125671,173.494919 309.552429,177.069397 305.305450,176.503296 
	C300.694305,175.888626 298.345367,171.931396 298.444000,167.993896 
	C298.510803,165.326828 300.837250,161.682419 303.206726,160.352829 
	C306.635315,158.428955 310.224792,160.242126 312.349701,163.831604 
	C312.992584,164.917542 313.424377,166.128433 313.625732,167.602859 
z"/>
</svg>